g back_007
v -1.8862894 1.5017099 0.30664372
v 2.1514788 0.04074526 -0.24633488
v 2.1514788 1.7747725 -0.24633476
v -1.7677394 4.060679 0.0030547678
v 1.780933 4.060679 0.0030547678
v 1.885567 1.5017099 0.30664372
v -1.8862894 -0.022533417 0.30664346
v 1.885567 -0.022533417 0.30664346
v -2.1514797 0.04074526 -0.24633524
v -2.1514788 1.7747724 -0.24633512
v 1.780933 0.68494344 0.0030542016
v -1.7677394 0.68494344 0.0030542016
v 1.780933 0.06325698 0.0030542612
v -1.7677394 0.06325698 0.0030542612
vt 0 1
vt 1 1
vt 0.73 1
vt 0 0.70500004
vt 0.73 0.705
vt 0.73 1
vt 0 0.70500004
vt 0.73 0.705
vt 1 0.33
vt 0.73 0.32999998
vt 0.73 0.010575
vt 0 0.0105749965
vt 0.73 0.010575
vt 0 0.0105749965
vn -0 0 1
vn -0 0 1
vn -0 0 1
vn -0 0 1
vn -0 0 1
vn -0 0 1
vn -0 0 1
vn -0 0 1
vn -0 0 1
vn -0 0 1
vn -0 0 1
vn -0 0 1
vn -0 0 1
vn -0 0 1
g back_007_0
f 6/6/6 1/1/1 7/7/7
f 8/8/8 6/6/6 7/7/7
f 5/5/5 4/4/4 12/12/12
f 11/11/11 5/5/5 12/12/12
f 12/12/12 14/14/14 11/11/11
f 14/14/14 13/13/13 11/11/11
f 10/10/10 9/9/9 2/2/2
f 3/3/3 10/10/10 2/2/2
