g back_002
v -1.5048803 0.0077517238 0.12536587
v 1.3471929 0.0077517238 0.12536587
v -1.5048803 0.45828137 0.12536591
v 1.3471929 0.53145313 0.1253659
v -1.5048803 0.52361405 -0.07165551
v -0.86706156 0.410531 -0.07165551
v 0.36354822 0.42383495 -0.07165553
v 1.3471929 0.5502219 -0.0716555
v -0.7772613 0.32147947 0.12536593
v 0.29370332 0.32147965 0.12536593
v 1.3471929 0.53145313 0.1253659
v 0.29370332 0.32147965 0.12536593
v -0.7772613 0.32147947 0.12536593
v -1.5048803 0.45828137 0.12536591
vt 0 0
vt 1 0
vt 3.9292343E-09 0.078982934
vt 1 0.09181065
vt 0.003164969 0.10288014
vt 0.22711584 0.08596942
vt 0.653438 0.09021412
vt 0.99610996 0.11531634
vt 0.25511935 0.055000007
vt 0.6306232 0.055000003
vt 1 0.09181065
vt 0.6306232 0.055000003
vt 0.25511935 0.055000007
vt 3.9292343E-09 0.078982934
vn -0 0 1
vn -0 0 1
vn 0.17020766 0.93005985 0.32560396
vn -0 0 1
vn 0.17020765 0.93005985 0.32560396
vn 0.08234428 0.9197013 0.3838869
vn -0.09116127 0.9350583 0.3425721
vn -0.1571014 0.95146906 0.26462376
vn 0.03781158 0.9105942 0.41156843
vn -0 0 1
vn -0.15710138 0.95146906 0.2646237
vn -0.05796837 0.92316204 0.38001525
vn -0 0 1
vn -0 0 1
g back_002_0
f 4/4/4 10/10/10 2/2/2
f 1/1/1 2/2/2 10/10/10
f 13/13/13 1/1/1 10/10/10
f 14/14/14 1/1/1 13/13/13
f 8/8/8 7/7/7 11/11/11
f 7/7/7 12/12/12 11/11/11
f 9/9/9 12/12/12 7/7/7
f 6/6/6 9/9/9 7/7/7
f 3/3/3 9/9/9 6/6/6
f 5/5/5 3/3/3 6/6/6
