g back_006_00
v -1.4988558 1.621606E-08 -0.3709802
v 0.29358214 -1.6866084E-08 0.38585103
v 1.7590848 1.02907185E-08 -0.23542419
v -1.5481268 0.6163702 -0.39178404
v 1.7595294 0.6163702 -0.15110764
v 0.39070418 0.6163702 0.42685938
v -1.4988561 1.0261196 -0.37098014
v 1.7251965 1.0109261 -0.16925958
v 0.39070454 1.0261197 0.42685938
v -1.4700317 2.2057626 -0.35880926
v 1.6362816 2.2057626 -0.21154088
v 0.1954666 2.2057626 0.3444233
v -1.4988561 1.0261196 -0.37098014
v 1.6263418 1.0507323 -0.20871243
v 0.25751656 1.0261196 0.37062293
v 0.25751656 1.0261196 0.37062293
v -1.4768474 2.449221 -0.36168733
v 1.666558 2.393512 -0.22432503
v 0.1954666 2.449221 0.34442312
v 1.6334107 2.4492207 -0.21182041
v -1.4302186 2.7237008 -0.3018632
v 0.11150672 2.7237003 0.34910828
v 1.5137427 2.7237008 -0.19666001
v -1.3711506 2.4499288 -0.34335095
v 0.19016957 2.449929 0.31589395
v 1.4981235 2.4499288 -0.19006523
v -1.4675623 2.8679128 -0.2860951
v 0.074162744 2.867913 0.36487603
v 1.5137427 2.867913 -0.19666
v 0.89774853 3.6777713 0.040281847
v -0.03812203 2.4492207 -0.92916894
v 0.49414265 3.6716807 -0.36887133
v 0.6355603 3.6716812 -0.31142795
v 0.77697754 3.6716807 -0.31142795
v 0.91839516 3.6716807 -0.3688715
v 0.49414265 4.197345 -0.36887133
v 0.6355603 4.197345 -0.31142792
v 0.77697754 4.197345 -0.31142792
v 0.918395 4.197345 -0.3688715
v 0.14643192 3.5800126 -0.30352992
v 0.3469794 3.6153743 -0.2460865
v 0.5475267 3.6507363 -0.24608682
v 0.7480739 3.6860983 -0.30352974
v 0.0045969007 4.3327975 -0.3035297
v 0.20514405 4.368159 -0.24608614
v 0.40569153 4.403521 -0.24608612
v 0.60623884 4.438883 -0.30352968
v -0.7711496 3.6588805 -0.70054615
v -0.62973213 3.65888 -0.6431031
v -0.48831475 3.65888 -0.6431031
v -0.34689727 3.65888 -0.7005463
v -0.77114964 4.101515 -0.70054644
v -0.62973213 4.1015153 -0.6431029
v -0.48831484 4.101515 -0.64310306
v -0.34689713 4.101515 -0.7005463
v -1.6694583 2.7190397 -0.3463687
v 0.023403073 2.71904 0.4169796
v -0.043930076 2.9123423 0.44550514
v 1.611788 2.697617 -0.18902849
v -0.1295068 2.697617 -0.9284615
v 1.6362816 2.9123425 -0.21154101
v -1.7454534 2.912342 -0.31730378
v 0.9392107 3.6339579 0.062625006
v 0.92723316 3.9538424 0.06164469
v -0.8154949 3.6339583 -0.67287767
v -0.8201945 3.9268396 -0.66658825
v -0.34639928 3.8728514 -0.46913615
v 0.41117597 3.8969157 -0.15341997
v -0.029454947 3.8728514 -0.33705118
v -0.34237865 3.033858 0.1820047
v 0.27205878 3.0338573 -0.0774328
v -1.0010012 3.0338578 -0.096089095
v -0.30944768 3.2073517 0.19590925
v 0.30498996 3.2073517 -0.06352843
v -1.0339324 3.2073517 -0.10999395
v -0.23699924 3.262715 0.22649957
v 0.37743855 3.262715 -0.032938108
v -1.1063808 3.262715 -0.1405841
v -0.67169017 3.7244744 0.042957827
v -0.05725231 3.7244744 -0.21647984
v -1.4377304 2.449221 -0.36140594
v 0.19628938 2.449221 0.32853508
v 1.5942693 2.4492207 -0.21224916
v -0.03892212 2.4492207 -0.9131432
v -1.686245 2.6925573 -0.35057676
v 0.031347845 2.6925828 0.4245246
v -0.049416017 2.9183357 0.4589662
v 1.6303499 2.6719377 -0.18528941
v -0.1364896 2.670875 -0.93599683
v -0.09621231 2.9191942 -0.9580733
v 1.6679555 2.919963 -0.21347997
v -1.7776754 2.9180076 -0.31583846
v 0.95793915 3.6197047 0.07233183
v 0.94126785 3.9813855 0.06639932
v -0.83556473 3.619764 -0.6821105
v -0.8314766 3.9544413 -0.6724585
v -0.3443283 3.9056785 -0.46943572
v 0.4118402 3.9296563 -0.15475646
v -0.028191399 3.9056668 -0.33789065
v -0.34542713 3.0283082 0.19563635
v 0.30434424 3.0283065 -0.07871704
v -1.0332867 3.0283065 -0.09480469
v -0.3835152 3.0283077 -0.36915845
v -0.31748107 3.1953278 0.208387
v 0.33454037 3.1953278 -0.06692171
v -1.063483 3.1953275 -0.10660002
v -0.41146117 3.1953275 -0.38190937
v -0.23072907 3.2606857 0.2401097
v 0.40967125 3.2606854 -0.030290514
v -1.138614 3.2606854 -0.14323169
v -0.4982136 3.2606862 -0.41363174
v -0.68550116 3.7509499 0.048789427
v -0.043441247 3.7509499 -0.22231159
v 1.4898974 2.697617 -0.24078868
v 0.8163815 3.6339579 0.011139825
v 0.25751656 1.0261196 0.37062293
v 1.6263418 1.0507323 -0.20871243
v 1.7251965 1.0109261 -0.16925958
v 0.39070454 1.0261197 0.42685938
v -0.23699924 3.262715 0.22649957
v 0.37743855 3.262715 -0.032938108
v -1.4768474 2.449221 -0.36168733
v -1.4377304 2.449221 -0.36140594
v 0.19628938 2.449221 0.32853508
v 0.1954666 2.449221 0.34442312
v 1.5942693 2.4492207 -0.21224916
v 1.6334107 2.4492207 -0.21182041
v -0.03892212 2.4492207 -0.9131432
v -1.686245 2.6925573 -0.35057676
v 0.95793915 3.6197047 0.07233183
v 0.031347845 2.6925828 0.4245246
v 1.6303499 2.6719377 -0.18528941
v 1.6679555 2.919963 -0.21347997
v -1.7776754 2.9180076 -0.31583846
v -0.83556473 3.619764 -0.6821105
v -0.1364896 2.670875 -0.93599683
v 0.94126785 3.9813855 0.06639932
v -0.8314766 3.9544413 -0.6724585
v -0.3443283 3.9056785 -0.46943572
v 0.4118402 3.9296563 -0.15475646
v -0.028191399 3.9056668 -0.33789065
v 0.30434424 3.0283065 -0.07871704
v 0.33454037 3.1953278 -0.06692171
v -1.0332867 3.0283065 -0.09480469
v -1.063483 3.1953275 -0.10660002
v 0.40967125 3.2606854 -0.030290514
v -0.4982136 3.2606862 -0.41363174
v -0.23072907 3.2606857 0.2401097
v -1.138614 3.2606854 -0.14323169
v 0.40967125 3.2606854 -0.030290514
v -0.043441247 3.7509499 -0.22231159
v -1.138614 3.2606854 -0.14323169
v -0.68550116 3.7509499 0.048789427
vt 0.025202606 0.004440274
vt 0.57083327 0.004440315
vt 0.9936314 0.004440274
vt 0.010204187 0.09528479
vt 0.9937665 0.095284805
vt 0.60039777 0.09528485
vt 0.025202546 0.15610175
vt 0.9925539 0.15610175
vt 0.60039777 0.15610178
vt 0.03397683 0.3409893
vt 0.9795603 0.3409893
vt 0.54096603 0.34098932
vt 0.025202546 0.1596386
vt 0.97653466 0.15996702
vt 0.55985445 0.15610178
vt 0.55985445 0.15898179
vt 0.031902146 0.37492794
vt 0.9887766 0.37001345
vt 0.54096603 0.37492803
vt 0.9786865 0.37492794
vt 0.05230902 0.41868344
vt 0.51036364 0.41868344
vt 0.9269754 0.41868344
vt 0.06985851 0.38353756
vt 0.5337348 0.38353762
vt 0.92233497 0.38353756
vt 0.041214027 0.44085148
vt 0.4992686 0.44085157
vt 0.9269754 0.44085148
vt 0.74396014 0.5653419
vt 0.67933905 0.82568574
vt 0.39775646 0.46058524
vt 0.43810397 0.46058524
vt 0.47845155 0.46058524
vt 0.5187991 0.46058524
vt 0.39775646 0.5371325
vt 0.43810397 0.5371325
vt 0.47845155 0.5371325
vt 0.5187991 0.5371325
vt 0.19223586 0.4496702
vt 0.24945363 0.45481956
vt 0.3066714 0.45996886
vt 0.36388925 0.46511835
vt 0.15176907 0.5592907
vt 0.20898691 0.5644403
vt 0.26620468 0.56958944
vt 0.32342252 0.5747388
vt 0.025304563 0.45339587
vt 0.06565214 0.45339587
vt 0.105999656 0.45339587
vt 0.1463472 0.45339587
vt 0.025304504 0.51785237
vt 0.06565214 0.51785237
vt 0.105999656 0.51785237
vt 0.1463472 0.51785237
vt 0.03264939 0.5804412
vt 0.51563644 0.5804413
vt 0.49642575 0.60859007
vt 0.9688156 0.5773217
vt 0.9117209 0.5542059
vt 0.9758038 0.60859007
vt 0.010967427 0.60859007
vt 0.77692384 0.7136719
vt 0.7735066 0.76025355
vt 0.71959865 0.6732397
vt 0.27495134 0.75632143
vt 0.4101289 0.7484596
vt 0.6262713 0.75196385
vt 0.5005557 0.7484596
vt 0.5374013 0.7772398
vt 0.7127054 0.7772398
vt 0.349491 0.7772398
vt 0.5467968 0.80250406
vt 0.72210085 0.80250394
vt 0.34009552 0.80250394
vt 0.5674669 0.81056607
vt 0.742771 0.81056607
vt 0.3194254 0.81056607
vt 0.4434461 0.8778075
vt 0.6187503 0.8778075
vt 0.89034975 0.5266675
vt 0.8991616 0.52666754
vt 0.9067385 0.5266675
vt 0.89793074 0.530365
vt 0.6772331 0.82528013
vt 0.67805386 0.82528013
vt 0.6780212 0.82532793
vt 0.67882407 0.8252748
vt 0.6779797 0.8252748
vt 0.67799413 0.82532793
vt 0.67883587 0.82532793
vt 0.67719615 0.82532793
vt 0.6784979 0.8255065
vt 0.67849207 0.82558566
vt 0.6776471 0.8255065
vt 0.67764485 0.825579
vt 0.67787457 0.82556564
vt 0.67824185 0.8255716
vt 0.6780282 0.82556564
vt 0.6780908 0.8256145
vt 0.6783887 0.8256145
vt 0.67777145 0.8256145
vt 0.6780695 0.8256145
vt 0.6781068 0.8256575
vt 0.6784047 0.8256575
vt 0.6777556 0.8256575
vt 0.6780535 0.8256575
vt 0.67814195 0.8256712
vt 0.67843986 0.8256712
vt 0.6777204 0.8256712
vt 0.67801833 0.8256712
vt 0.6779312 0.82578546
vt 0.6782291 0.82578546
vt 0.91594994 0.55450404
vt 0.71687585 0.6752244
vt 0.55985445 0.15898179
vt 0.97653466 0.15996702
vt 0.9925539 0.15610175
vt 0.60039777 0.15610178
vt 0.5674669 0.81056607
vt 0.742771 0.81056607
vt 0.6764325 0.8242681
vt 0.6764325 0.8242681
vt 0.679811 0.82426816
vt 0.679811 0.82426816
vt 0.682716 0.8242681
vt 0.682716 0.8242681
vt 0.67933905 0.82568574
vt 0.6772331 0.82528013
vt 0.6784979 0.8255065
vt 0.67805386 0.82528013
vt 0.67882407 0.8252748
vt 0.67883587 0.82532793
vt 0.67719615 0.82532793
vt 0.6776471 0.8255065
vt 0.6779797 0.8252748
vt 0.67849207 0.82558566
vt 0.67764485 0.825579
vt 0.67787457 0.82556564
vt 0.67824185 0.8255716
vt 0.6780282 0.82556564
vt 0.6783887 0.8256145
vt 0.6784047 0.8256575
vt 0.67777145 0.8256145
vt 0.6777556 0.8256575
vt 0.67843986 0.8256712
vt 0.67801833 0.8256712
vt 0.67814195 0.8256712
vt 0.6777204 0.8256712
vt 0.67843986 0.8256712
vt 0.6782291 0.82578546
vt 0.6777204 0.8256712
vt 0.6779312 0.82578546
vn -0.3889825 0 0.9212451
vn -0.093597725 -0.052152876 0.9942432
vn 0.38668472 -0.12351534 0.9139031
vn -0.38898247 0 0.92124516
vn 0.39210856 -0.06474645 0.9176376
vn -0.016985415 -0.033622045 0.9992902
vn -0.3889825 0 0.9212451
vn 0.3982591 0.037684068 0.9164985
vn 0.3657842 0.03639892 0.92998767
vn -0.38898247 0 0.92124516
vn 0.3730398 0.018482702 0.9276312
vn -0.07978955 0.008020455 0.9967795
vn -0.38898247 0 0.92124516
vn 0.37442 0.019883497 0.92704594
vn -0.38898247 0 0.92124516
vn -0.041247275 0.009881491 0.9991001
vn -0.38898247 0 0.92124516
vn 0.36078063 0.0053252373 0.93263555
vn -0.17584771 0 0.9844173
vn 0.36007562 0.004794855 0.9329108
vn -0.3803002 -0.21010251 0.9006823
vn -0.06156463 -0.13147715 0.9894056
vn 0.3622437 -0.0037643248 0.93207586
vn -0.37961408 -0.21814883 0.8990574
vn 0.019850967 -0.11164439 0.99355
vn 0.36177582 -0.0036684184 0.93225795
vn -0.38132173 -0.197487 0.9031017
vn 0.09724798 -0.07738648 0.992247
vn 0.3632701 0.0008591003 0.9316834
vn 0.36339867 0.0038405452 0.9316258
vn -0 1 0
vn -0.3763348 0 0.92648375
vn -0.19903517 0 0.97999233
vn 0.19903603 0 0.9799921
vn 0.37633592 0 0.9264832
vn -0.37633476 0 0.92648375
vn -0.19903514 0 0.97999233
vn 0.19903582 0 0.9799922
vn 0.3763359 0 0.9264832
vn -0.2668102 -0.050271153 0.96243703
vn -0.13626918 -0.025675567 0.9903391
vn 0.1382363 0.02604505 0.9900568
vn 0.2668093 0.05027011 0.9624374
vn -0.2668102 -0.050271153 0.96243715
vn -0.13823605 -0.026046148 0.9900568
vn 0.13626958 0.025674494 0.9903391
vn 0.2668093 0.050270107 0.9624374
vn -0.37633446 0 0.92648387
vn -0.1990343 0 0.97999257
vn 0.19903484 0 0.97999245
vn 0.37633392 0 0.92648417
vn -0.3763345 0 0.92648387
vn -0.1990345 0 0.97999245
vn 0.19903457 0 0.97999245
vn 0.37633395 0 0.92648417
vn -0.39406523 -0.27665496 0.87645566
vn -0.0868973 -0.17325413 0.98103607
vn -0.23615187 0.3223134 0.9167041
vn 0.039709598 -0.23530684 0.9711096
vn -0.34318858 -0.46959513 0.81345063
vn 0.39361027 0.031158395 0.9187493
vn -0.3841133 0.305493 0.87128115
vn 0.25270915 -0.0803434 0.96420074
vn 0.032866877 0.3280786 0.94407845
vn -0.3431886 -0.46959516 0.81345063
vn -0.27489975 0.5274824 0.80386096
vn -0.29996035 0.559097 0.7729388
vn -0.3523638 0.599851 0.7183443
vn -0.32829693 0.59780914 0.7313313
vn -0.06955482 -0.06656949 0.99535453
vn 0.38480997 -0.1460812 0.9113625
vn -0.3889824 0 0.92124516
vn -0.05137195 -0.13205716 0.98990995
vn 0.3570406 -0.39685112 0.8455951
vn -0.3889824 0 0.92124516
vn 0.2725821 -0.7134006 0.6455683
vn 0.27258217 -0.71340066 0.6455684
vn -0.3889823 0 0.92124516
vn -0.014053763 0.35788453 0.9336601
vn 0.31382316 0.5908529 0.74324137
vn -0 1 0
vn -0 1 0
vn -0 1 0
vn -0 1 0
vn 0.39327124 0.284153 -0.8744111
vn 0.09112883 0.17489675 -0.98036045
vn 0.23130131 -0.2954735 -0.92692775
vn -0.38544995 0.15264338 0.9100155
vn -0.23004392 0.12248832 0.96544105
vn -0.24391218 -0.2391612 0.9398451
vn -0.37770697 -0.19546755 0.905058
vn 0.38873342 -0.27496615 -0.8793634
vn 0.17529085 0.37183523 -0.91159844
vn -0.054443303 -0.3130164 -0.948186
vn -0.18216988 0.48698786 0.8541996
vn 0.04734012 -0.2409287 0.9693876
vn 0.30198705 -0.55841297 -0.77264404
vn -0.31850895 -0.44492367 0.8370155
vn 0.32890254 -0.59556043 -0.73289216
vn 0.060038675 0.0659915 -0.99601233
vn -0.3854643 0.13417567 -0.9129152
vn 0.38546482 0.13417643 0.91291493
vn -0.060038853 0.065992266 0.9960122
vn 0.06313787 0.110980235 -0.99181503
vn -0.3564222 0.40050682 -0.84413123
vn 0.35642242 0.40050706 0.84413105
vn -0.06313817 0.1109808 0.9918149
vn -0.28012204 0.6938308 -0.66342324
vn -0.2801221 0.69383085 -0.66342324
vn 0.2801225 0.6938293 0.6634246
vn 0.18523121 -0.503614 0.84383786
vn 0.01147607 -0.35425836 -0.93507713
vn -0.31562397 -0.58448046 -0.74750525
vn -0.3432695 -0.46920353 0.81364244
vn -0.34321514 -0.4694667 0.8135136
vn 0.08426243 0.97583526 0.20160677
vn 0.08426242 0.97583526 0.20160678
vn 0.08426243 0.97583526 0.20160675
vn 0.08426242 0.97583526 0.20160674
vn 0.18770392 0.5102947 0.83926547
vn 0.31382316 0.5908529 0.74324137
vn -0 1 0
vn -0 1 0
vn -0 1 0
vn -0 1 0
vn -0 1 0
vn -0 1 0
vn -0 1 0
vn -0.239542 0.52952176 0.8137729
vn -0.32398087 0.5847404 0.7437171
vn -0.32398084 0.58474046 0.743717
vn 0.2927988 0.44123212 -0.8482824
vn -0.40453902 -0.037250094 -0.91376173
vn 0.37231308 -0.015486586 0.927978
vn 0.34395534 0.46822166 -0.8139184
vn 0.34395534 0.46822166 -0.8139184
vn -0.31045228 -0.43536684 0.8450297
vn 0.2801566 -0.5309478 -0.7997541
vn -0.36205292 -0.48528448 0.7958747
vn 0.34939435 -0.59740007 -0.72182876
vn -0.33773428 -0.48015723 0.8095583
vn -0.3889782 0.0052555995 0.92123204
vn -0.3888298 -0.028052092 0.9208824
vn 0.38897747 0.0052549425 -0.92123234
vn 0.3888293 -0.028052479 -0.9208827
vn -0.38895994 -0.010737254 0.92119205
vn 0.2801225 0.69382924 0.6634246
vn -0.18523128 -0.50361377 -0.84383804
vn 0.38895997 -0.010737459 -0.92119205
vn -0.31562397 -0.58448046 -0.74750525
vn -0.011476142 -0.35425836 0.93507713
vn 0.315624 -0.5844808 0.747505
vn 0.315624 -0.5844808 0.747505
g back_006_00_0
f 4/4/4 1/1/1 2/2/2
f 6/6/6 4/4/4 2/2/2
f 6/6/6 2/2/2 3/3/3
f 5/5/5 6/6/6 3/3/3
f 5/5/5 8/8/8 6/6/6
f 8/8/8 9/9/9 6/6/6
f 9/9/9 15/15/15 6/6/6
f 6/6/6 15/15/15 4/4/4
f 15/15/15 7/7/7 4/4/4
f 14/14/14 11/11/11 16/16/16
f 11/11/11 12/12/12 16/16/16
f 16/16/16 12/12/12 13/13/13
f 12/12/12 10/10/10 13/13/13
f 20/20/20 12/12/12 11/11/11
f 11/11/11 18/18/18 20/20/20
f 20/20/20 19/19/19 12/12/12
f 12/12/12 19/19/19 10/10/10
f 19/19/19 17/17/17 10/10/10
f 118/118/118 117/117/117 116/116/116
f 119/119/119 118/118/118 116/116/116
f 26/26/26 23/23/23 25/25/25
f 23/23/23 22/22/22 25/25/25
f 25/25/25 22/22/22 24/24/24
f 23/23/23 29/29/29 22/22/22
f 22/22/22 21/21/21 24/24/24
f 29/29/29 28/28/28 22/22/22
f 22/22/22 28/28/28 21/21/21
f 29/29/29 30/30/30 28/28/28
f 28/28/28 27/27/27 21/21/21
f 84/84/84 81/81/81 82/82/82
f 83/83/83 84/84/84 82/82/82
f 37/37/37 36/36/36 32/32/32
f 33/33/33 37/37/37 32/32/32
f 38/38/38 37/37/37 33/33/33
f 34/34/34 38/38/38 33/33/33
f 39/39/39 38/38/38 34/34/34
f 35/35/35 39/39/39 34/34/34
f 45/45/45 44/44/44 40/40/40
f 41/41/41 45/45/45 40/40/40
f 46/46/46 45/45/45 41/41/41
f 42/42/42 46/46/46 41/41/41
f 47/47/47 46/46/46 42/42/42
f 43/43/43 47/47/47 42/42/42
f 53/53/53 52/52/52 48/48/48
f 49/49/49 53/53/53 48/48/48
f 54/54/54 53/53/53 49/49/49
f 50/50/50 54/54/54 49/49/49
f 55/55/55 54/54/54 50/50/50
f 51/51/51 55/55/55 50/50/50
f 115/115/115 65/65/65 60/60/60
f 114/114/114 115/115/115 60/60/60
f 63/63/63 115/115/115 114/114/114
f 59/59/59 63/63/63 114/114/114
f 59/59/59 61/61/61 63/63/63
f 61/61/61 64/64/64 63/63/63
f 63/63/63 64/64/64 57/57/57
f 64/64/64 58/58/58 57/57/57
f 57/57/57 58/58/58 56/56/56
f 64/64/64 68/68/68 58/58/58
f 68/68/68 69/69/69 58/58/58
f 58/58/58 62/62/62 56/56/56
f 69/69/69 62/62/62 58/58/58
f 67/67/67 62/62/62 69/69/69
f 66/66/66 62/62/62 67/67/67
f 71/71/71 74/74/74 70/70/70
f 74/74/74 73/73/73 70/70/70
f 70/70/70 73/73/73 72/72/72
f 74/74/74 77/77/77 73/73/73
f 77/77/77 76/76/76 73/73/73
f 73/73/73 75/75/75 72/72/72
f 73/73/73 120/120/120 75/75/75
f 120/120/120 78/78/78 75/75/75
f 120/120/120 79/79/79 78/78/78
f 80/80/80 79/79/79 120/120/120
f 121/121/121 80/80/80 120/120/120
f 131/131/131 130/130/130 129/129/129
f 130/130/130 95/95/95 129/129/129
f 129/129/129 95/95/95 96/96/96
f 134/134/134 129/129/129 96/96/96
f 96/96/96 95/95/95 90/90/90
f 95/95/95 89/89/89 90/90/90
f 139/139/139 96/96/96 90/90/90
f 90/90/90 89/89/89 88/88/88
f 141/141/141 139/139/139 90/90/90
f 91/91/91 90/90/90 88/88/88
f 141/141/141 90/90/90 91/91/91
f 98/98/98 141/141/141 91/91/91
f 98/98/98 91/91/91 137/137/137
f 136/136/136 135/135/135 93/93/93
f 132/132/132 136/136/136 93/93/93
f 133/133/133 132/132/132 93/93/93
f 94/94/94 133/133/133 93/93/93
f 94/94/94 93/93/93 86/86/86
f 87/87/87 94/94/94 86/86/86
f 87/87/87 86/86/86 85/85/85
f 140/140/140 94/94/94 87/87/87
f 99/99/99 140/140/140 87/87/87
f 92/92/92 87/87/87 85/85/85
f 92/92/92 99/99/99 87/87/87
f 92/92/92 97/97/97 99/99/99
f 92/92/92 138/138/138 97/97/97
f 105/105/105 101/101/101 100/100/100
f 104/104/104 105/105/105 100/100/100
f 104/104/104 100/100/100 144/144/144
f 109/109/109 105/105/105 104/104/104
f 108/108/108 109/109/109 104/104/104
f 145/145/145 104/104/104 144/144/144
f 148/148/148 104/104/104 145/145/145
f 149/149/149 148/148/148 145/145/145
f 112/112/112 148/148/148 149/149/149
f 112/112/112 113/113/113 148/148/148
f 113/113/113 150/150/150 148/148/148
f 106/106/106 102/102/102 103/103/103
f 107/107/107 106/106/106 103/103/103
f 107/107/107 103/103/103 142/142/142
f 110/110/110 106/106/106 107/107/107
f 147/147/147 110/110/110 107/107/107
f 143/143/143 107/107/107 142/142/142
f 111/111/111 107/107/107 143/143/143
f 146/146/146 111/111/111 143/143/143
f 151/151/151 111/111/111 146/146/146
f 151/151/151 153/153/153 111/111/111
f 153/153/153 152/152/152 111/111/111
f 128/128/128 126/126/126 127/127/127
f 127/127/127 126/126/126 125/125/125
f 31/31/31 128/128/128 127/127/127
f 126/126/126 124/124/124 125/125/125
f 123/123/123 128/128/128 31/31/31
f 125/125/125 124/124/124 122/122/122
f 122/122/122 123/123/123 31/31/31
f 124/124/124 123/123/123 122/122/122
