g facility_cook_school_000
v -0.563799 -0.391104 0.835134
v 0.563799 -0.391104 0.835134
v -2.725414 -0.391104 0.026398
v 2.725414 -0.391104 0.026398
v -0.563799 -0.628574 0.835134
v 0.660002 -0.391104 0.956568
v 2.725414 -0.391104 1.204496
v 0.660002 -0.391104 1.204496
v 0.563799 -0.628574 0.835134
v -0.660002 -0.391104 0.956568
v -2.725414 -0.391104 1.202809
v -0.660002 -0.391104 1.202809
v -0.545551 -0.391104 0.026398
v -0.563799 -0.391104 0.044646
v -0.582047 -0.391104 0.026398
v 0.582047 -0.391104 0.026398
v 0.563799 -0.391104 0.044646
v 0.545551 -0.391104 0.026398
v -0.737957 -0.391104 0.026398
v -0.754172 -0.391104 0.044449
v -0.774453 -0.391104 0.026398
v 0.774453 -0.391104 0.026398
v 0.754211 -0.391104 0.044474
v 0.737957 -0.391104 0.026398
v 0.563799 -0.391104 0.92507
v 0.595297 -0.391104 0.956568
v -0.595297 -0.391104 0.956568
v -0.563799 -0.391104 0.92507
v 0.754211 -0.628574 0.044474
v 0.737957 -0.628574 0.026398
v 2.725414 -0.628574 1.204496
v 0.660002 -0.628574 1.204496
v -0.660002 -0.628574 0.956568
v 2.725414 -0.628574 0.026398
v 0.660002 -0.628574 0.956568
v -0.660002 -0.628574 1.202809
v -2.725414 -0.628574 1.202809
v -2.725414 -0.628574 0.026398
v -0.545551 -0.628574 0.026398
v -0.563799 -0.628574 0.044646
v -0.582047 -0.628574 0.026398
v 0.582047 -0.628574 0.026398
v 0.563799 -0.628574 0.044646
v 0.545551 -0.628574 0.026398
v -0.737957 -0.628574 0.026398
v -0.754172 -0.628574 0.044449
v 0.774453 -0.628574 0.026398
v -0.774453 -0.628574 0.026398
v 0.595297 -0.628574 0.956568
v 0.563799 -0.628574 0.92507
v -0.563799 -0.628574 0.92507
v -0.595297 -0.628574 0.956568
v -2.475846 -0.516165 2.054461
v -0.931241 -0.516165 2.054461
v -2.475846 -0.516165 1.190566
v -0.931241 -0.516165 1.190566
v -2.732019 0.338428 4.606113
v 2.732019 0.338428 4.606113
v -2.732019 0.338427 1.763729
v 2.732019 0.338427 1.763729
v 2.732019 0.282568 4.606113
v -2.732019 0.282568 4.606113
v -2.732019 0.282568 1.763729
v 2.732019 0.282568 1.763729
v -2.732019 0.255132 1.879744
v 2.732019 0.255132 1.879744
v -2.732019 0.128266 1.879744
v 2.732019 0.128266 1.879744
v 2.732019 0.255132 1.698545
v 2.685258 0.255132 1.651784
v -2.685258 0.255132 1.651784
v -2.732019 0.255132 1.698545
v 2.685258 0.128265 1.651784
v 2.732019 0.128265 1.698545
v -2.732019 0.128265 1.698545
v -2.685258 0.128265 1.651784
v 2.718592 0.128265 1.671792
v 2.718592 0.255132 1.671792
v -2.718592 0.128265 1.671792
v -2.718592 0.255132 1.671792
v 2.669908 0.383309 1.784715
v -2.669908 0.383309 1.784715
v -2.669908 0.383309 0.180375
v 2.669908 0.383309 0.180375
v -1.227544 0.173318 2.161374
v -2.161924 0.173318 2.161374
v -2.161924 0.173318 1.885457
v -1.227544 0.173318 1.885457
v 1.888656 0.173318 2.161374
v 0.949216 0.173318 2.161374
v 0.949216 0.173318 1.885457
v 1.888656 0.173318 1.885457
v -0.563799 -0.628574 0.835134
v -0.563799 -0.628574 0.044646
v 0.754211 -0.391104 0.044474
v 0.754211 -0.628574 0.044474
v 0.774453 -0.628574 0.026398
v 0.774453 -0.391104 0.026398
v 0.563799 -0.391104 0.92507
v 0.563799 -0.628574 0.92507
v 0.563799 -0.628574 0.835134
v 0.563799 -0.391104 0.835134
v -0.660002 -0.391104 0.956568
v -0.660002 -0.628574 0.956568
v -0.660002 -0.628574 1.202809
v -0.660002 -0.391104 1.202809
v 0.660002 -0.391104 1.204496
v 0.660002 -0.628574 1.204496
v 0.660002 -0.628574 0.956568
v 0.660002 -0.391104 0.956568
v -0.774453 -0.391104 0.026398
v -0.774453 -0.628574 0.026398
v -0.754172 -0.628574 0.044449
v -0.754172 -0.391104 0.044449
v -0.563799 -0.391104 0.835134
v -0.563799 -0.628574 0.835134
v -0.563799 -0.628574 0.92507
v -0.563799 -0.391104 0.92507
v 0.563799 -0.391104 0.835134
v 0.563799 -0.628574 0.835134
v -0.563799 -0.628574 0.835134
v -0.563799 -0.391104 0.835134
v -2.725414 -0.391104 1.202809
v -2.725414 -0.628574 1.202809
v -2.725414 -0.628574 0.026398
v -2.725414 -0.391104 0.026398
v -0.595297 -0.628574 0.956568
v -0.595297 -0.391104 0.956568
v 0.737957 -0.391104 0.026398
v 0.737957 -0.628574 0.026398
v 0.754211 -0.628574 0.044474
v 0.754211 -0.391104 0.044474
v -0.563799 -0.391104 0.044646
v -0.563799 -0.628574 0.044646
v -0.545551 -0.628574 0.026398
v -0.545551 -0.391104 0.026398
v 0.582047 -0.391104 0.026398
v 0.582047 -0.628574 0.026398
v -0.660002 -0.628574 0.956568
v -0.660002 -0.391104 0.956568
v -0.582047 -0.391104 0.026398
v -0.582047 -0.628574 0.026398
v -0.563799 -0.628574 0.044646
v -0.563799 -0.391104 0.044646
v -2.725414 -0.391104 0.026398
v -2.725414 -0.628574 0.026398
v -0.737957 -0.391104 0.026398
v -0.737957 -0.628574 0.026398
v 0.563799 -0.391104 0.044646
v 0.563799 -0.628574 0.044646
v 2.725414 -0.628574 0.026398
v 2.725414 -0.391104 0.026398
v 2.725414 -0.391104 1.204496
v 2.725414 -0.628574 1.204496
v 0.660002 -0.628574 1.204496
v 0.660002 -0.391104 1.204496
v 0.545551 -0.391104 0.026398
v 0.545551 -0.628574 0.026398
v 0.563799 -0.628574 0.044646
v 0.563799 -0.391104 0.044646
v 0.660002 -0.391104 0.956568
v 0.660002 -0.628574 0.956568
v 0.595297 -0.628574 0.956568
v 0.595297 -0.391104 0.956568
v -0.754172 -0.391104 0.044449
v -0.754172 -0.628574 0.044449
v -0.660002 -0.391104 1.202809
v -0.660002 -0.628574 1.202809
v -2.725414 -0.628574 1.202809
v -2.725414 -0.391104 1.202809
v 2.725414 -0.391104 0.026398
v 2.725414 -0.628574 0.026398
v 2.725414 -0.628574 1.204496
v 2.725414 -0.391104 1.204496
v -2.732019 0.338428 4.606113
v 2.732019 0.338428 4.606113
v 2.732019 0.282568 4.606113
v -2.732019 0.282568 4.606113
v 2.732019 0.338427 1.763729
v -2.732019 0.338427 1.763729
v -2.732019 0.282568 1.763729
v 2.732019 0.282568 1.763729
v -2.732019 0.338427 1.763729
v -2.732019 0.338428 4.606113
v -2.732019 0.282568 4.606113
v -2.732019 0.282568 1.763729
v 2.732019 0.338428 4.606113
v 2.732019 0.338427 1.763729
v 2.732019 0.282568 1.763729
v 2.732019 0.282568 4.606113
v 2.732019 0.255132 1.879744
v 2.732019 0.128266 1.879744
v -2.732019 0.128266 1.879744
v -2.732019 0.255132 1.879744
v 2.718592 0.128265 1.671792
v 2.718592 0.255132 1.671792
v -2.718592 0.128265 1.671792
v -2.685258 0.128265 1.651784
v -2.685258 0.255132 1.651784
v -2.718592 0.255132 1.671792
v -2.685258 0.255132 1.651784
v -2.685258 0.128265 1.651784
v 2.685258 0.128265 1.651784
v 2.685258 0.255132 1.651784
v 2.685258 0.128265 1.651784
v 2.685258 0.255132 1.651784
v -2.732019 0.128265 1.698545
v 2.732019 0.128265 1.698545
v -2.732019 0.255132 1.698545
v 2.732019 0.255132 1.698545
v -2.732019 0.128266 1.879744
v 2.732019 0.128266 1.879744
v -2.732019 0.255132 1.879744
v 2.732019 0.255132 1.879744
vt 0.464434 0.023053
vt 0.465399 0.023053
vt 0.462585 0.022361
vt 0.467248 0.022361
vt 0.493909 0.125985
vt 0.465481 0.023157
vt 0.467248 0.023369
vt 0.465481 0.023369
vt 0.663832 0.125985
vt 0.464352 0.023157
vt 0.462585 0.023368
vt 0.464352 0.023368
vt 0.46445 0.022361
vt 0.464434 0.022377
vt 0.464419 0.022361
vt 0.465414 0.022361
vt 0.465399 0.022377
vt 0.465383 0.022361
vt 0.464285 0.022361
vt 0.464271 0.022377
vt 0.464254 0.022361
vt 0.465579 0.022361
vt 0.465562 0.022377
vt 0.465548 0.022361
vt 0.465399 0.02313
vt 0.465426 0.023157
vt 0.464407 0.023157
vt 0.464434 0.02313
vt 0.692237 0.008035
vt 0.689813 0.005339
vt 0.986299 0.181086
vt 0.678184 0.181086
vt 0.417718 0.142804
vt 0.986299 0.005339
vt 0.678184 0.144101
vt 0.417718 0.179538
vt 0.109602 0.179538
vt 0.109602 0.004042
vt 0.496631 0.005339
vt 0.493909 0.008061
vt 0.429348 0.004042
vt 0.666554 0.005339
vt 0.663832 0.008061
vt 0.66111 0.005339
vt 0.406089 0.004042
vt 0.40367 0.006735
vt 0.695258 0.005339
vt 0.400645 0.004042
vt 0.668531 0.144101
vt 0.663832 0.139402
vt 0.43207 0.138105
vt 0.427371 0.142804
vt 0.158165 0.519841
vt 0.158165 0.273221
vt 0.010954 0.519841
vt 0.010954 0.273221
vt 0.464643 0.023369
vt 0.466298 0.023369
vt 0.464643 0.022508
vt 0.466298 0.022508
vt 0.98187 0.977831
vt 0.16675 0.977831
vt 0.16675 0.553807
vt 0.98187 0.553807
vt 0.151012 0.264102
vt 0.151012 0.264102
vt 0.164136 0.264102
vt 0.164136 0.264102
vt 0.151012 0.237071
vt 0.466284 0.021665
vt 0.464657 0.021665
vt 0.151012 0.237071
vt 0.97228 0.230095
vt 0.164136 0.237071
vt 0.164136 0.237071
vt 0.171112 0.230095
vt 0.977252 0.23308
vt 0.466294 0.021671
vt 0.16614 0.23308
vt 0.464647 0.021671
vt 0.972604 0.524004
vt 0.176016 0.524004
vt 0.176016 0.28467
vt 0.972604 0.28467
vt 0.128154 0.71125
vt 0.128154 0.865842
vt 0.078479 0.865842
vt 0.078479 0.71125
vt 0.128623 0.54952
vt 0.128623 0.707025
vt 0.082363 0.707025
vt 0.082363 0.54952
vt 0.43207 0.124689
vt 0.43207 0.006764
vt 0.465562 0.022377
vt 0.465562 0.022377
vt 0.465579 0.022361
vt 0.465579 0.022361
vt 0.467495 0.148997
vt 0.43207 0.138105
vt 0.43207 0.124689
vt 0.467495 0.135581
vt 0.453144 0.154474
vt 0.417718 0.142804
vt 0.417718 0.179538
vt 0.453144 0.191208
vt 0.453144 0.19146
vt 0.417718 0.17979
vt 0.417718 0.142804
vt 0.453144 0.154474
vt 0.464254 0.022361
vt 0.464254 0.022361
vt 0.464271 0.022377
vt 0.464271 0.022377
vt 0.467495 0.135581
vt 0.43207 0.124689
vt 0.43207 0.138105
vt 0.467495 0.148997
vt 0.663832 0.161328
vt 0.663832 0.125985
vt 0.493909 0.125985
vt 0.493909 0.161328
vt 0.074177 0.179538
vt 0.109602 0.179538
vt 0.109602 0.004042
vt 0.074177 0.004042
vt 0.427371 0.142804
vt 0.462797 0.153696
vt 0.465548 0.022361
vt 0.465548 0.022361
vt 0.465562 0.022377
vt 0.465562 0.022377
vt 0.464434 0.022377
vt 0.464434 0.022377
vt 0.46445 0.022361
vt 0.46445 0.022361
vt 0.465414 0.022361
vt 0.465414 0.022361
vt 0.417718 0.142804
vt 0.453144 0.154474
vt 0.464419 0.022361
vt 0.464419 0.022361
vt 0.464434 0.022377
vt 0.464434 0.022377
vt 0.462585 0.022361
vt 0.462585 0.022361
vt 0.464285 0.022361
vt 0.464285 0.022361
vt 0.465399 0.022377
vt 0.465399 0.022377
vt 0.467248 0.022361
vt 0.467248 0.022361
vt 0.986299 0.216429
vt 0.986299 0.181086
vt 0.678184 0.181086
vt 0.678184 0.216429
vt 0.465383 0.022361
vt 0.465383 0.022361
vt 0.465399 0.022377
vt 0.465399 0.022377
vt 0.453144 0.154474
vt 0.417718 0.142804
vt 0.427371 0.142804
vt 0.462797 0.153696
vt 0.464271 0.022377
vt 0.464271 0.022377
vt 0.678184 0.216429
vt 0.678184 0.181086
vt 0.986299 0.181086
vt 0.986299 0.216429
vt 0.074177 0.004042
vt 0.109602 0.004042
vt 0.109602 0.179789
vt 0.074177 0.179789
vt 0.16675 0.991356
vt 0.98187 0.991356
vt 0.98187 0.977831
vt 0.16675 0.977831
vt 0.466298 0.022508
vt 0.464643 0.022508
vt 0.464643 0.022508
vt 0.466298 0.022508
vt 0.152938 0.553807
vt 0.152937 0.977831
vt 0.16675 0.977831
vt 0.16675 0.553807
vt 0.152937 0.977831
vt 0.152938 0.553807
vt 0.16675 0.553807
vt 0.16675 0.977831
vt 0.979256 0.264102
vt 0.979256 0.264102
vt 0.164136 0.264102
vt 0.164136 0.264102
vt 0.16614 0.23308
vt 0.153015 0.23308
vt 0.16614 0.23308
vt 0.171112 0.230095
vt 0.157988 0.230095
vt 0.153015 0.23308
vt 0.464657 0.021665
vt 0.464657 0.021665
vt 0.466284 0.021665
vt 0.466284 0.021665
vt 0.171112 0.230095
vt 0.157988 0.230095
vt 0.164136 0.237071
vt 0.979256 0.237071
vt 0.464643 0.021679
vt 0.466298 0.021679
vt 0.164136 0.264102
vt 0.979256 0.264102
vt 0.464643 0.021734
vt 0.466298 0.021734
vn -0 1 0
vn -0 1 0
vn -0 1 0
vn -0 1 0
vn -0 -1 0
vn -0 1 0
vn -0 1 0
vn -0 1 0
vn -0 -1 0
vn -0 1 0
vn -0 1 0
vn -0 1 0
vn -0 1 0
vn -0 1 0
vn -0 1 0
vn -0 1 0
vn -0 1 0
vn -0 1 0
vn -0 1 0
vn -0 1 0
vn -0 1 0
vn -0 1 0
vn -0 1 0
vn -0 1 0
vn -0 1 0
vn -0 1 0
vn -0 1 0
vn -0 1 0
vn -0 -1 0
vn -0 -1 0
vn -0 -1 0
vn -0 -1 0
vn -0 -1 0
vn -0 -1 0
vn -0 -1 0
vn -0 -1 0
vn -0 -1 0
vn -0 -1 0
vn -0 -1 0
vn -0 -1 0
vn -0 -1 0
vn -0 -1 0
vn -0 -1 0
vn -0 -1 0
vn -0 -1 0
vn -0 -1 0
vn -0 -1 0
vn -0 -1 0
vn -0 -1 0
vn -0 -1 0
vn -0 -1 0
vn -0 -1 0
vn -0 -1 0
vn -0 -1 0
vn -0 -1 0
vn -0 -1 0
vn -0 1 0
vn -0 1 0
vn -0 1 0
vn -0 1 0
vn -0 -1 0
vn -0 -1 0
vn -0 -1 0
vn -0 -1 0
vn -1 0 0
vn 1 0 0
vn -1 0 0
vn 1 0 0
vn 0.997922 0 -0.064433925
vn -0 1 0
vn -0 1 0
vn -0.997922 0 -0.064433925
vn -0 -1 0
vn 0.997922 0 -0.064434126
vn -0.997922 0 -0.064434126
vn -0 -1 0
vn -0 -1 0
vn -0 1 0
vn -0 -1 0
vn -0 1 0
vn -0 -1 0
vn -0 -1 0
vn -0 -1 0
vn -0 -1 0
vn -0 -1 0
vn -0 -1 0
vn -0 -1 0
vn -0 -1 0
vn -0 -1 0
vn -0 -1 0
vn -0 -1 0
vn -0 -1 0
vn -0 -1 0
vn -0 -1 0
vn -0.6660734 0 -0.7458863
vn -0.6660734 0 -0.7458863
vn -0.009169648 0 -0.99995804
vn -0.009169648 0 -0.99995804
vn -0.96796775 0 0.25107476
vn -0.96796775 0 0.25107476
vn -1 0 0
vn -1 0 0
vn 1 0 0
vn 1 0 0
vn 1 0 0
vn 1 0 0
vn -1 0 0
vn -1 0 0
vn -1 0 0
vn -1 0 0
vn 0.009156789 0 -0.99995816
vn 0.009156789 0 -0.99995816
vn 0.66484696 0 -0.7469797
vn 0.66484696 0 -0.7469797
vn 1 0 0
vn 1 0 0
vn 0.96796775 0 0.25107476
vn 0.96796775 0 0.25107476
vn -0 0 1
vn -0 0 1
vn -0 0 1
vn -0 0 1
vn -1 0 0
vn -1 0 0
vn -1 0 0
vn -1 0 0
vn 0.31115866 0 0.95035803
vn 0.31115866 0 0.95035803
vn 0.10441894 0 -0.9945334
vn 0.10441894 0 -0.9945334
vn 0.7435885 0 -0.6686376
vn 0.7435885 0 -0.6686376
vn -0.70710635 0 -0.7071072
vn -0.70710635 0 -0.7071072
vn -0.016447049 0 -0.9998647
vn -0.016447049 0 -0.9998647
vn -0.104207955 0 -0.9945556
vn -0.104207955 0 -0.9945556
vn -0 0 1
vn -0 0 1
vn 0.104207955 0 -0.9945556
vn 0.104207955 0 -0.9945556
vn 0.7071075 0 -0.70710605
vn 0.7071075 0 -0.70710605
vn -0 0 -1
vn -0 0 -1
vn -0.10429946 0 -0.99454594
vn -0.10429946 0 -0.99454594
vn -0.7071075 0 -0.70710605
vn -0.7071075 0 -0.70710605
vn -0 0 -1
vn -0 0 -1
vn -0 0 1
vn -0 0 1
vn -0 0 1
vn -0 0 1
vn 0.016447049 0 -0.9998647
vn 0.016447049 0 -0.9998647
vn 0.70710635 0 -0.7071072
vn 0.70710635 0 -0.7071072
vn -0 0 1
vn -0 0 1
vn -0.31115866 0 0.95035803
vn -0.31115866 0 0.95035803
vn -0.7439265 0 -0.6682614
vn -0.7439265 0 -0.6682614
vn -0 0 1
vn -0 0 1
vn -0 0 1
vn -0 0 1
vn 1 0 0
vn 1 0 0
vn 1 0 0
vn 1 0 0
vn -0 0 1
vn -0 0 1
vn -0 0 1
vn -0 0 1
vn -0 0 -1
vn -0 0 -1
vn -0 0 -1
vn -0 0 -1
vn -1 0 0
vn -1 0 0
vn -1 0 0
vn -1 0 0
vn 1 0 0
vn 1 0 0
vn 1 0 0
vn 1 0 0
vn -0 0 1
vn -0 0 1
vn -0 0 1
vn -0 0 1
vn 0.7071067 0 -0.70710677
vn 0.7071067 0 -0.70710677
vn -0.7071067 0 -0.70710677
vn -0.003702537 0 -0.9999932
vn -0.003702537 0 -0.9999932
vn -0.7071067 0 -0.70710677
vn -0.003702537 0 -0.9999932
vn -0.003702537 0 -0.9999932
vn 0.003702537 0 -0.9999932
vn 0.003702537 0 -0.9999932
vn 0.003702537 0 -0.9999932
vn 0.003702537 0 -0.9999932
vn -0 -1 0
vn -0 -1 0
vn -0 1 0
vn -0 1 0
vn -0 -1 0
vn -0 -1 0
vn -0 1 0
vn -0 1 0
g facility_cook_school_000_0
f 24/24/24 16/16/16 17/17/17
f 17/17/17 23/23/23 24/24/24
f 17/17/17 2/2/2 23/23/23
f 1/1/1 2/2/2 17/17/17
f 14/14/14 1/1/1 17/17/17
f 14/14/14 17/17/17 18/18/18
f 18/18/18 13/13/13 14/14/14
f 20/20/20 1/1/1 14/14/14
f 20/20/20 14/14/14 15/15/15
f 15/15/15 19/19/19 20/20/20
f 10/10/10 1/1/1 20/20/20
f 10/10/10 27/27/27 1/1/1
f 27/27/27 28/28/28 1/1/1
f 11/11/11 10/10/10 20/20/20
f 12/12/12 10/10/10 11/11/11
f 11/11/11 20/20/20 21/21/21
f 21/21/21 3/3/3 11/11/11
f 2/2/2 25/25/25 26/26/26
f 6/6/6 2/2/2 26/26/26
f 6/6/6 23/23/23 2/2/2
f 23/23/23 6/6/6 7/7/7
f 8/8/8 7/7/7 6/6/6
f 23/23/23 7/7/7 4/4/4
f 4/4/4 22/22/22 23/23/23
f 42/42/42 30/30/30 29/29/29
f 29/29/29 43/43/43 42/42/42
f 29/29/29 9/9/9 43/43/43
f 43/43/43 9/9/9 40/40/40
f 9/9/9 5/5/5 40/40/40
f 43/43/43 40/40/40 39/39/39
f 39/39/39 44/44/44 43/43/43
f 29/29/29 35/35/35 9/9/9
f 9/9/9 35/35/35 49/49/49
f 50/50/50 9/9/9 49/49/49
f 31/31/31 35/35/35 29/29/29
f 31/31/31 32/32/32 35/35/35
f 31/31/31 29/29/29 47/47/47
f 47/47/47 34/34/34 31/31/31
f 33/33/33 36/36/36 37/37/37
f 46/46/46 33/33/33 37/37/37
f 46/46/46 37/37/37 38/38/38
f 38/38/38 48/48/48 46/46/46
f 93/93/93 33/33/33 46/46/46
f 52/52/52 33/33/33 93/93/93
f 51/51/51 52/52/52 93/93/93
f 94/94/94 93/93/93 46/46/46
f 94/94/94 46/46/46 45/45/45
f 45/45/45 41/41/41 94/94/94
f 97/97/97 96/96/96 95/95/95
f 98/98/98 97/97/97 95/95/95
f 151/151/151 97/97/97 98/98/98
f 152/152/152 151/151/151 98/98/98
f 102/102/102 101/101/101 99/99/99
f 101/101/101 100/100/100 99/99/99
f 99/99/99 100/100/100 164/164/164
f 100/100/100 163/163/163 164/164/164
f 164/164/164 163/163/163 161/161/161
f 163/163/163 162/162/162 161/161/161
f 105/105/105 104/104/104 103/103/103
f 106/106/106 105/105/105 103/103/103
f 109/109/109 108/108/108 107/107/107
f 110/110/110 109/109/109 107/107/107
f 114/114/114 113/113/113 111/111/111
f 113/113/113 112/112/112 111/111/111
f 111/111/111 112/112/112 145/145/145
f 112/112/112 146/146/146 145/145/145
f 117/117/117 116/116/116 115/115/115
f 118/118/118 117/117/117 115/115/115
f 127/127/127 117/117/117 118/118/118
f 128/128/128 127/127/127 118/118/118
f 139/139/139 127/127/127 128/128/128
f 140/140/140 139/139/139 128/128/128
f 121/121/121 120/120/120 119/119/119
f 122/122/122 121/121/121 119/119/119
f 125/125/125 124/124/124 123/123/123
f 126/126/126 125/125/125 123/123/123
f 132/132/132 131/131/131 129/129/129
f 131/131/131 130/130/130 129/129/129
f 129/129/129 130/130/130 137/137/137
f 130/130/130 138/138/138 137/137/137
f 137/137/137 138/138/138 149/149/149
f 138/138/138 150/150/150 149/149/149
f 135/135/135 134/134/134 133/133/133
f 136/136/136 135/135/135 133/133/133
f 158/158/158 135/135/135 136/136/136
f 157/157/157 158/158/158 136/136/136
f 159/159/159 158/158/158 157/157/157
f 160/160/160 159/159/159 157/157/157
f 144/144/144 143/143/143 141/141/141
f 143/143/143 142/142/142 141/141/141
f 141/141/141 142/142/142 147/147/147
f 142/142/142 148/148/148 147/147/147
f 147/147/147 148/148/148 165/165/165
f 148/148/148 166/166/166 165/165/165
f 155/155/155 154/154/154 153/153/153
f 156/156/156 155/155/155 153/153/153
f 169/169/169 168/168/168 167/167/167
f 170/170/170 169/169/169 167/167/167
f 173/173/173 172/172/172 171/171/171
f 174/174/174 173/173/173 171/171/171
f 54/54/54 53/53/53 55/55/55
f 56/56/56 54/54/54 55/55/55
f 58/58/58 60/60/60 59/59/59
f 57/57/57 58/58/58 59/59/59
f 61/61/61 62/62/62 63/63/63
f 64/64/64 61/61/61 63/63/63
f 177/177/177 176/176/176 175/175/175
f 178/178/178 177/177/177 175/175/175
f 181/181/181 180/180/180 179/179/179
f 182/182/182 181/181/181 179/179/179
f 185/185/185 184/184/184 183/183/183
f 186/186/186 185/185/185 183/183/183
f 189/189/189 188/188/188 187/187/187
f 190/190/190 189/189/189 187/187/187
f 66/66/66 68/68/68 69/69/69
f 68/68/68 74/74/74 69/69/69
f 69/69/69 74/74/74 195/195/195
f 196/196/196 69/69/69 195/195/195
f 196/196/196 195/195/195 205/205/205
f 206/206/206 196/196/196 205/205/205
f 75/75/75 67/67/67 65/65/65
f 72/72/72 75/75/75 65/65/65
f 72/72/72 200/200/200 75/75/75
f 200/200/200 197/197/197 75/75/75
f 200/200/200 199/199/199 197/197/197
f 199/199/199 198/198/198 197/197/197
f 70/70/70 71/71/71 80/80/80
f 78/78/78 70/70/70 80/80/80
f 78/78/78 80/80/80 209/209/209
f 210/210/210 78/78/78 209/209/209
f 210/210/210 209/209/209 213/213/213
f 214/214/214 210/210/210 213/213/213
f 193/193/193 192/192/192 191/191/191
f 194/194/194 193/193/193 191/191/191
f 76/76/76 73/73/73 77/77/77
f 79/79/79 76/76/76 77/77/77
f 79/79/79 77/77/77 207/207/207
f 77/77/77 208/208/208 207/207/207
f 207/207/207 208/208/208 211/211/211
f 208/208/208 212/212/212 211/211/211
f 203/203/203 202/202/202 201/201/201
f 204/204/204 203/203/203 201/201/201
f 81/81/81 82/82/82 83/83/83
f 84/84/84 81/81/81 83/83/83
f 87/87/87 88/88/88 85/85/85
f 86/86/86 87/87/87 85/85/85
f 91/91/91 92/92/92 89/89/89
f 90/90/90 91/91/91 89/89/89
