g facility_cook_sf_000
v -2.45659 -0.64709 0.581877
v 2.45659 -0.64709 0.581877
v -2.45659 -0.64709 2.765175
v 2.45659 -0.64709 2.765175
v -2.75 0.647089 4.457725
v -2.75 0.647089 0.023666
v 2.75 0.647089 4.457725
v -2.75 -0.64709 0.023666
v 2.75 -0.64709 4.457725
v -2.75 -0.64709 4.457725
v -2.648493 -0.816334 0.737589
v -0.933089 -0.816334 0.737589
v -2.648493 -0.816334 -0.018895
v -0.933089 -0.816334 -0.018895
v 0.770288 -0.816334 0.767257
v 2.625992 -0.816334 0.767257
v 0.770288 -0.816334 0.000586
v 2.625992 -0.816334 0.000586
v -2.373061 -0.701226 3.331393
v -2.211865 -0.701226 3.331393
v -2.373061 -0.873722 3.354232
v -2.211865 -0.873722 3.354232
v -2.211865 -1.12638 3.963217
v -2.211865 -0.963655 4.125942
v -2.211865 -1.104579 4.04458
v -2.211865 -1.045018 4.104142
v -2.373061 -0.963655 4.125942
v -2.373061 -1.12638 3.963217
v -2.373061 -1.045018 4.104142
v -2.373061 -1.104579 4.04458
v -2.373061 -0.701226 4.097199
v -2.373061 -0.729968 4.125942
v -2.211865 -0.729968 4.125942
v -2.211865 -0.701226 4.097199
v -2.1771 -0.701226 3.871282
v -2.1771 -0.873722 3.986112
v -2.1771 -0.92133 3.968967
v -2.1771 -0.950106 3.921386
v -2.1771 -0.92133 3.873805
v -2.1771 -0.796244 3.766987
v -2.1771 -0.796244 3.713696
v -2.1771 -0.701597 3.668018
v -2.701624 0.056715 3.002387
v -2.701624 0.056715 0.360804
v 2.701624 0.056715 0.360804
v 2.701624 0.056715 3.002387
v -2.556149 -0.478324 2.630578
v -2.556149 -0.478324 0.488996
v 2.451928 -0.478324 0.488996
v 2.451928 -0.478324 2.657224
v 0.488934 -0.478324 0.488996
v -0.692125 -0.478324 0.488996
v -0.692125 -0.478324 2.630578
v 0.488934 -0.478324 2.657224
v -2.45659 -0.564802 0.581877
v 2.45659 -0.564802 0.581877
v -2.45659 -0.564802 2.765175
v 2.45659 -0.564802 2.765175
v -2.606107 -0.564802 0.395059
v 2.606107 -0.564802 0.395059
v -2.606107 -0.564802 2.951993
v 2.606107 -0.564802 2.951993
v 2.373061 -0.701226 3.331393
v 2.211865 -0.701226 3.331393
v 2.373061 -0.873722 3.354232
v 2.211865 -0.873722 3.354232
v 2.211865 -1.12638 3.963217
v 2.211865 -0.963656 4.125942
v 2.211865 -1.104579 4.04458
v 2.211865 -1.045018 4.104142
v 2.373061 -0.963656 4.125942
v 2.373061 -1.12638 3.963217
v 2.373061 -1.045018 4.104142
v 2.373061 -1.104579 4.04458
v 2.373061 -0.701226 4.097199
v 2.373061 -0.729968 4.125942
v 2.211865 -0.729968 4.125942
v 2.211865 -0.701226 4.097199
v 2.1771 -0.701226 3.871282
v -0 -0.701226 3.871282
v 2.1771 -0.873722 3.986112
v -0 -0.873722 3.986112
v 2.1771 -0.92133 3.968967
v -0 -0.92133 3.968967
v 2.1771 -0.950106 3.921386
v -0 -0.950106 3.921386
v 2.1771 -0.92133 3.873805
v -0 -0.92133 3.873805
v 2.1771 -0.796244 3.766987
v -0 -0.796244 3.766987
v 2.1771 -0.796244 3.713696
v -0 -0.796244 3.713696
v 2.1771 -0.701597 3.668017
v -0 -0.701597 3.668017
v 2.75 0.647089 0.023666
v 2.75 -0.64709 0.023666
v 2.75 0.647089 0.023666
v 2.75 0.647089 4.457725
v -2.75 0.647089 0.023666
v -2.75 0.647089 4.457725
v 2.75 -0.64709 4.457725
v -2.75 -0.64709 4.457725
v -2.75 0.647089 4.457725
v 2.75 0.647089 4.457725
v -2.75 -0.64709 0.023666
v 2.75 -0.64709 0.023666
v 2.75 0.647089 0.023666
v -2.75 0.647089 0.023666
v 2.75 -0.64709 0.023666
v -2.75 -0.64709 0.023666
v -2.75 -0.64709 4.457725
v 2.75 -0.64709 4.457725
v -2.373061 -1.12638 3.963217
v -2.211865 -1.12638 3.963217
v -2.211865 -0.873722 3.354232
v -2.211865 -0.701226 3.331393
v -2.373061 -0.873722 3.354232
v -2.211865 -0.873722 3.354232
v -2.211865 -1.12638 3.963217
v -2.373061 -1.12638 3.963217
v -2.373061 -1.104579 4.04458
v -2.211865 -1.104579 4.04458
v -2.373061 -1.104579 4.04458
v -2.373061 -1.045018 4.104142
v -2.211865 -1.045018 4.104142
v -2.373061 -1.045018 4.104142
v -2.373061 -0.963655 4.125942
v -2.373061 -0.701226 3.331393
v -2.211865 -0.701226 3.331393
v -2.211865 -0.701226 4.097199
v -2.373061 -0.701226 4.097199
v -2.211865 -0.701226 4.097199
v -2.373061 -0.729968 4.125942
v -2.211865 -0.729968 4.125942
v -2.211865 -0.963655 4.125942
v -2.373061 -0.963655 4.125942
v -2.373061 -0.701226 3.331393
v -2.373061 -0.701226 4.097199
v -2.373061 -0.873722 3.354232
v -2.211865 -0.963655 4.125942
v -2.211865 -1.104579 4.04458
v -2.211865 -1.045018 4.104142
v -2.373061 -0.729968 4.125942
v -2.211865 -0.729968 4.125942
v -0 -0.873722 3.986112
v -2.1771 -0.873722 3.986112
v -0 -0.92133 3.968967
v -2.1771 -0.92133 3.968967
v -0 -0.950106 3.921386
v -2.1771 -0.950106 3.921386
v -0 -0.92133 3.873805
v -2.1771 -0.92133 3.873805
v -0 -0.796244 3.766987
v -2.1771 -0.796244 3.766987
v -0 -0.796244 3.713696
v -2.1771 -0.796244 3.713696
v -0 -0.701226 3.871282
v -2.1771 -0.701226 3.871282
v -2.1771 -0.701597 3.668018
v -0 -0.701597 3.668017
v -2.1771 -0.796244 3.713696
v -2.1771 -0.796244 3.766987
v -2.1771 -0.701226 3.871282
v -2.1771 -0.701597 3.668018
v -2.1771 -0.92133 3.873805
v -2.1771 -0.873722 3.986112
v -2.1771 -0.950106 3.921386
v -2.1771 -0.92133 3.968967
v 2.45659 -0.64709 0.581877
v 2.45659 -0.64709 2.765175
v 2.45659 -0.64709 2.765175
v 2.45659 -0.564802 2.765175
v -2.45659 -0.64709 2.765175
v -2.45659 -0.64709 2.765175
v -2.45659 -0.564802 2.765175
v -2.45659 -0.64709 0.581877
v -2.45659 -0.64709 0.581877
v -2.45659 -0.564802 0.581877
v 2.45659 -0.564802 0.581877
v 2.45659 -0.64709 0.581877
v 2.45659 -0.564802 0.581877
v 2.45659 -0.564802 2.765175
v 2.45659 -0.564802 2.765175
v 2.606107 -0.564802 2.951993
v -2.45659 -0.564802 2.765175
v -2.45659 -0.564802 2.765175
v -2.606107 -0.564802 2.951993
v -2.45659 -0.564802 0.581877
v 2.373061 -1.12638 3.963217
v 2.211865 -0.873722 3.354232
v 2.211865 -1.12638 3.963217
v 2.211865 -0.701226 3.331393
v 2.211865 -0.873722 3.354232
v 2.373061 -0.873722 3.354232
v 2.211865 -1.12638 3.963217
v 2.373061 -1.104579 4.04458
v 2.373061 -1.12638 3.963217
v 2.211865 -1.104579 4.04458
v 2.373061 -1.045018 4.104142
v 2.373061 -1.104579 4.04458
v 2.211865 -1.045018 4.104142
v 2.373061 -0.963656 4.125942
v 2.373061 -1.045018 4.104142
v 2.211865 -0.701226 4.097199
v 2.211865 -0.701226 3.331393
v 2.373061 -0.701226 3.331393
v 2.211865 -0.701226 4.097199
v 2.373061 -0.701226 4.097199
v 2.373061 -0.729968 4.125942
v 2.373061 -0.963656 4.125942
v 2.211865 -0.963656 4.125942
v 2.211865 -0.729968 4.125942
v 2.373061 -0.701226 3.331393
v 2.373061 -0.873722 3.354232
v 2.373061 -0.701226 4.097199
v 2.211865 -0.963656 4.125942
v 2.211865 -1.045018 4.104142
v 2.211865 -1.104579 4.04458
v 2.373061 -0.729968 4.125942
v 2.211865 -0.729968 4.125942
v -0 -0.701226 3.871282
v -0 -0.873722 3.986112
v -0 -0.873722 3.986112
v 2.1771 -0.873722 3.986112
v -0 -0.92133 3.968967
v -0 -0.92133 3.968967
v 2.1771 -0.92133 3.968967
v -0 -0.950106 3.921386
v -0 -0.950106 3.921386
v 2.1771 -0.950106 3.921386
v -0 -0.92133 3.873805
v -0 -0.92133 3.873805
v 2.1771 -0.92133 3.873805
v -0 -0.796244 3.766987
v -0 -0.796244 3.766987
v 2.1771 -0.796244 3.766987
v -0 -0.796244 3.713696
v -0 -0.796244 3.713696
v 2.1771 -0.796244 3.713696
v -0 -0.701597 3.668017
v -0 -0.701226 3.871282
v -0 -0.701597 3.668017
v 2.1771 -0.701597 3.668017
v 2.1771 -0.701226 3.871282
vt 0.267624 0.083737
vt 0.954956 0.083737
vt 0.267624 0.389171
vt 0.954956 0.389171
vt 0.013664 0.564611
vt 0.013664 0.564221
vt 0.046204 0.629642
vt 0.226577 0.005646
vt 0.226577 0.628767
vt 0.226577 0.628767
vt 0.015011 0.753032
vt 0.015011 0.989275
vt 0.119193 0.753032
vt 0.119193 0.989275
vt 0.547759 0.383307
vt 0.547759 0.127742
vt 0.653344 0.383307
vt 0.653344 0.127742
vt 0.063726 0.638765
vt 0.116742 0.636396
vt 0.063726 0.639005
vt 0.092986 0.639541
vt 0.05819 0.72341
vt 0.085926 0.640261
vt 0.085926 0.640029
vt 0.085926 0.640145
vt 0.05151 0.746807
vt 0.051286 0.746583
vt 0.051398 0.746777
vt 0.051316 0.746695
vt 0.013375 0.564428
vt 0.063726 0.640583
vt 0.085926 0.640583
vt 0.116742 0.741862
vt 0.136742 0.683124
vt 0.16528 0.683124
vt 0.172248 0.683124
vt 0.179907 0.683124
vt 0.187565 0.683124
vt 0.210218 0.683124
vt 0.222786 0.683124
vt 0.23203 0.683124
vt 0.241202 0.997924
vt 0.241202 0.634129
vt 0.98533 0.634129
vt 0.98533 0.997924
vt 0.279722 0.384909
vt 0.279722 0.089973
vt 0.93211 0.087251
vt 0.93211 0.385856
vt 0.661769 0.087251
vt 0.536433 0.089974
vt 0.536433 0.384909
vt 0.661769 0.385856
vt 0.255952 0.083737
vt 0.967043 0.083737
vt 0.267624 0.403688
vt 0.967043 0.380257
vt 0.011567 0.566508
vt 0.012315 0.566508
vt 0.011567 0.566141
vt 0.012315 0.566141
vt 0.063726 0.638765
vt 0.116742 0.636396
vt 0.063726 0.639005
vt 0.092986 0.639541
vt 0.05819 0.72341
vt 0.085926 0.640261
vt 0.085926 0.640029
vt 0.085926 0.640145
vt 0.05151 0.746807
vt 0.051286 0.746583
vt 0.051398 0.746777
vt 0.051316 0.746695
vt 0.013375 0.564428
vt 0.063726 0.640583
vt 0.085926 0.640583
vt 0.116742 0.741862
vt 0.136742 0.683124
vt 0.136741 0.987658
vt 0.16528 0.683124
vt 0.16528 0.987659
vt 0.172248 0.683124
vt 0.172248 0.987659
vt 0.179907 0.683124
vt 0.179906 0.987659
vt 0.187565 0.683124
vt 0.187564 0.987659
vt 0.210218 0.683124
vt 0.210218 0.987659
vt 0.222786 0.683124
vt 0.222786 0.987659
vt 0.23203 0.683124
vt 0.23203 0.987659
vt 0.043206 0.006521
vt 0.226577 0.005646
vt 0.013181 0.564221
vt 0.013181 0.564611
vt 0.043206 0.006521
vt 0.046204 0.629642
vt 0.213205 0.655827
vt 0.2106 0.655827
vt 0.2106 0.657791
vt 0.213205 0.657791
vt 0.014164 0.564399
vt 0.01368 0.564399
vt 0.01368 0.564512
vt 0.014164 0.564512
vt 0.996003 0.005646
vt 0.226577 0.005646
vt 0.226577 0.628767
vt 0.996003 0.628767
vt 0.063726 0.639913
vt 0.085926 0.639913
vt 0.085926 0.639005
vt 0.085926 0.638765
vt 0.063726 0.639005
vt 0.085926 0.639005
vt 0.085926 0.639913
vt 0.063726 0.639913
vt 0.063726 0.640029
vt 0.085926 0.640029
vt 0.063726 0.640029
vt 0.063726 0.640145
vt 0.085926 0.640145
vt 0.063726 0.640145
vt 0.063726 0.640261
vt 0.013375 0.564442
vt 0.013378 0.564442
vt 0.013378 0.564428
vt 0.063726 0.640639
vt 0.085926 0.640639
vt 0.063726 0.640583
vt 0.085926 0.640583
vt 0.085926 0.640261
vt 0.063726 0.640261
vt 0.051872 0.745712
vt 0.051872 0.746767
vt 0.051634 0.745744
vt 0.0806 0.74582
vt 0.061192 0.734615
vt 0.069395 0.742818
vt 0.051832 0.746807
vt 0.112783 0.74582
vt 0.16528 0.987659
vt 0.16528 0.683124
vt 0.172248 0.987659
vt 0.172248 0.683124
vt 0.179906 0.987659
vt 0.179907 0.683124
vt 0.187564 0.987659
vt 0.187565 0.683124
vt 0.210218 0.987659
vt 0.210218 0.683124
vt 0.222786 0.987659
vt 0.222786 0.683124
vt 0.013379 0.564458
vt 0.013379 0.564417
vt 0.013375 0.564417
vt 0.013375 0.564458
vt 0.013895 0.564438
vt 0.013372 0.564437
vt 0.013369 0.564436
vt 0.013372 0.564439
vt 0.013372 0.564434
vt 0.01337 0.564433
vt 0.013372 0.564433
vt 0.013371 0.564432
vt 0.954956 0.083737
vt 0.954956 0.389171
vt 0.954956 0.389171
vt 0.954956 0.403688
vt 0.267624 0.389171
vt 0.267624 0.389171
vt 0.255952 0.380257
vt 0.267624 0.083737
vt 0.267624 0.083737
vt 0.267624 0.071318
vt 0.954956 0.071318
vt 0.954956 0.083737
vt 0.012293 0.566481
vt 0.012293 0.562262
vt 0.012293 0.562262
vt 0.012315 0.566141
vt 0.011588 0.562262
vt 0.011588 0.562262
vt 0.011567 0.566141
vt 0.011588 0.566481
vt 0.063726 0.639913
vt 0.085926 0.639005
vt 0.085926 0.639913
vt 0.085926 0.638765
vt 0.085926 0.639005
vt 0.063726 0.639005
vt 0.085926 0.639913
vt 0.063726 0.640029
vt 0.063726 0.639913
vt 0.085926 0.640029
vt 0.063726 0.640145
vt 0.063726 0.640029
vt 0.085926 0.640145
vt 0.063726 0.640261
vt 0.063726 0.640145
vt 0.013378 0.564428
vt 0.013378 0.564442
vt 0.013375 0.564442
vt 0.085926 0.640639
vt 0.063726 0.640639
vt 0.063726 0.640583
vt 0.063726 0.640261
vt 0.085926 0.640261
vt 0.085926 0.640583
vt 0.051872 0.745712
vt 0.051634 0.745744
vt 0.051872 0.746767
vt 0.0806 0.74582
vt 0.069395 0.742818
vt 0.061192 0.734615
vt 0.051832 0.746807
vt 0.112783 0.74582
vt 0.136741 0.987658
vt 0.16528 0.987659
vt 0.16528 0.987659
vt 0.16528 0.683124
vt 0.172248 0.987659
vt 0.172248 0.987659
vt 0.172248 0.683124
vt 0.179906 0.987659
vt 0.179906 0.987659
vt 0.179907 0.683124
vt 0.187564 0.987659
vt 0.187564 0.987659
vt 0.187565 0.683124
vt 0.210218 0.987659
vt 0.210218 0.987659
vt 0.210218 0.683124
vt 0.222786 0.987659
vt 0.222786 0.987659
vt 0.222786 0.683124
vt 0.23203 0.987659
vt 0.013379 0.564458
vt 0.013375 0.564458
vt 0.013375 0.564417
vt 0.013379 0.564417
vn -0 -1 0
vn -0 -1 0
vn -0 -1 0
vn -0 -1 0
vn -0 1 0
vn -0 1 0
vn 1 0 0
vn -1 0 0
vn 1 0 0
vn -1 0 0
vn -0 -1 0
vn -0 -1 0
vn -0 -1 0
vn -0 -1 0
vn -0 -1 0
vn -0 -1 0
vn -0 -1 0
vn -0 -1 0
vn -0 -0.13125803 -0.9913482
vn 1 0 0
vn -0 -0.9236604 -0.38321218
vn 1 0 0
vn 1 0 0
vn -0 -0.25881407 0.9659272
vn -0 -0.96592605 0.258818
vn -0 -0.70710725 0.70710623
vn -1 0 0
vn -1 0 0
vn -1 0 0
vn -1 0 0
vn -0 1 0
vn -0 0.70710725 0.70710623
vn -0 0.70710725 0.70710623
vn 1 0 0
vn -0 0.5541391 0.8324241
vn -0 0.5541391 0.8324241
vn -0 -0.33881292 0.9408538
vn -0 -0.855685 0.517497
vn -0 -0.855685 -0.517497
vn -0 -0.6493951 -0.76045114
vn -0 -1 0
vn -0 -0.4346438 -0.9006025
vn -0 -1 0
vn -0 -1 0
vn -0 -1 0
vn -0 -1 0
vn -0 -1 0
vn -0 -1 0
vn -0 -1 0
vn -0 -1 0
vn -0 -1 0
vn -0 -1 0
vn -0 -1 0
vn -0 -1 0
vn 1 0 0
vn -1 0 0
vn -0 0 -1
vn -1 0 0
vn -0 1 0
vn -0 1 0
vn -0 1 0
vn -0 1 0
vn -0 -0.13125803 -0.9913482
vn -1 0 0
vn -0 -0.9236604 -0.38321218
vn -1 0 0
vn -1 0 0
vn -0 -0.25881407 0.9659272
vn -0 -0.96592605 0.258818
vn -0 -0.7071078 0.70710576
vn 1 0 0
vn 1 0 0
vn 1 0 0
vn 1 0 0
vn -0 1 0
vn -0 0.70710623 0.70710725
vn -0 0.70710623 0.70710725
vn -1 0 0
vn -0 0.55413866 0.8324244
vn -0 0.5541391 0.8324241
vn -0 0.55413866 0.8324244
vn -0 0.5541391 0.8324241
vn -0 -0.33881292 0.9408538
vn -0 -0.33881292 0.9408538
vn -0 -0.8556861 0.51749504
vn -0 -0.855685 0.517497
vn -0 -0.8556861 -0.51749504
vn -0 -0.855685 -0.517497
vn -0 -0.6493951 -0.76045114
vn -0 -0.6493951 -0.76045114
vn -0 -1 0
vn -0 -1 0
vn -0 -0.4346438 -0.9006025
vn -0 -0.4346438 -0.9006025
vn 1 0 0
vn 1 0 0
vn -0 1 0
vn -0 1 0
vn -1 0 0
vn -1 0 0
vn -0 0 1
vn -0 0 1
vn -0 0 1
vn -0 0 1
vn -0 0 -1
vn -0 0 -1
vn -0 0 -1
vn -0 0 -1
vn -0 -1 0
vn -0 -1 0
vn -0 -1 0
vn -0 -1 0
vn -0 -0.9236604 -0.38321218
vn -0 -0.9236604 -0.38321218
vn -0 -0.9236604 -0.38321218
vn -0 -0.13125803 -0.9913482
vn -0 -0.13125803 -0.9913482
vn -0 -0.13125803 -0.9913482
vn -0 -0.96592605 0.258818
vn -0 -0.96592605 0.258818
vn -0 -0.96592605 0.258818
vn -0 -0.70710725 0.70710623
vn -0 -0.70710725 0.70710623
vn -0 -0.70710725 0.70710623
vn -0 -0.25881407 0.9659272
vn -0 -0.25881407 0.9659272
vn -0 -0.25881407 0.9659272
vn -0 1 0
vn -0 1 0
vn -0 1 0
vn -0 0.70710725 0.70710623
vn -0 0.70710725 0.70710623
vn -0 0 1
vn -0 0 1
vn -0 0 1
vn -0 0 1
vn -1 0 0
vn -1 0 0
vn -1 0 0
vn 1 0 0
vn 1 0 0
vn 1 0 0
vn -1 0 0
vn 1 0 0
vn -0 -0.33881292 0.9408538
vn -0 -0.33881292 0.9408538
vn -0 -0.855685 0.517497
vn -0 -0.855685 0.517497
vn -0 -0.855685 -0.517497
vn -0 -0.855685 -0.517497
vn -0 -0.6493951 -0.76045114
vn -0 -0.6493951 -0.76045114
vn -0 -1 0
vn -0 -1 0
vn -0 -0.4346438 -0.9006025
vn -0 -0.4346438 -0.9006025
vn -0 0.99999833 -0.0018270006
vn -0 0.99999833 -0.0018270006
vn -0 0.99999833 -0.0018270006
vn -0 0.99999833 -0.0018270006
vn 1 0 0
vn 1 0 0
vn 1 0 0
vn 1 0 0
vn 1 0 0
vn 1 0 0
vn 1 0 0
vn 1 0 0
vn -1 0 0
vn -1 0 0
vn -0 0 -1
vn -0 0 -1
vn -0 0 -1
vn 1 0 0
vn 1 0 0
vn 1 0 0
vn -0 0 1
vn -0 0 1
vn -0 0 1
vn -0 0 1
vn -0 1 0
vn -0 1 0
vn -0 1 0
vn -0 1 0
vn -0 1 0
vn -0 1 0
vn -0 1 0
vn -0 1 0
vn -0 -0.9236604 -0.38321218
vn -0 -0.9236604 -0.38321218
vn -0 -0.9236604 -0.38321218
vn -0 -0.13125803 -0.9913482
vn -0 -0.13125803 -0.9913482
vn -0 -0.13125803 -0.9913482
vn -0 -0.96592605 0.258818
vn -0 -0.96592605 0.258818
vn -0 -0.96592605 0.258818
vn -0 -0.7071078 0.70710576
vn -0 -0.7071078 0.70710576
vn -0 -0.7071078 0.70710576
vn -0 -0.25881407 0.9659272
vn -0 -0.25881407 0.9659272
vn -0 -0.25881407 0.9659272
vn -0 1 0
vn -0 1 0
vn -0 1 0
vn -0 0.70710623 0.70710725
vn -0 0.70710623 0.70710725
vn -0 0 1
vn -0 0 1
vn -0 0 1
vn -0 0 1
vn 1 0 0
vn 1 0 0
vn 1 0 0
vn -1 0 0
vn -1 0 0
vn -1 0 0
vn 1 0 0
vn -1 0 0
vn -0 0.55413866 0.8324244
vn -0 0.55413866 0.8324244
vn -0 -0.33881292 0.9408538
vn -0 -0.33881292 0.9408538
vn -0 -0.33881292 0.9408538
vn -0 -0.8556861 0.51749504
vn -0 -0.8556861 0.51749504
vn -0 -0.8556861 0.51749504
vn -0 -0.8556861 -0.51749504
vn -0 -0.8556861 -0.51749504
vn -0 -0.8556861 -0.51749504
vn -0 -0.6493951 -0.76045114
vn -0 -0.6493951 -0.76045114
vn -0 -0.6493951 -0.76045114
vn -0 -1 0
vn -0 -1 0
vn -0 -1 0
vn -0 -0.4346438 -0.9006025
vn -0 -0.4346438 -0.9006025
vn -0 -0.4346438 -0.9006025
vn -0 0.99999833 -0.0018270006
vn -0 0.99999833 -0.0018270006
vn -0 0.99999833 -0.0018270006
vn -0 0.99999833 -0.0018270006
g facility_cook_sf_000_0
f 95/95/95 7/7/7 9/9/9
f 96/96/96 95/95/95 9/9/9
f 98/98/98 97/97/97 6/6/6
f 5/5/5 98/98/98 6/6/6
f 99/99/99 8/8/8 10/10/10
f 100/100/100 99/99/99 10/10/10
f 103/103/103 102/102/102 101/101/101
f 104/104/104 103/103/103 101/101/101
f 107/107/107 106/106/106 105/105/105
f 108/108/108 107/107/107 105/105/105
f 14/14/14 12/12/12 11/11/11
f 13/13/13 14/14/14 11/11/11
f 18/18/18 16/16/16 15/15/15
f 17/17/17 18/18/18 15/15/15
f 30/30/30 29/29/29 28/28/28
f 29/29/29 27/27/27 28/28/28
f 28/28/28 27/27/27 138/138/138
f 27/27/27 143/143/143 138/138/138
f 28/28/28 138/138/138 137/137/137
f 139/139/139 28/28/28 137/137/137
f 22/22/22 20/20/20 34/34/34
f 23/23/23 22/22/22 34/34/34
f 23/23/23 34/34/34 144/144/144
f 140/140/140 23/23/23 144/144/144
f 141/141/141 23/23/23 140/140/140
f 142/142/142 141/141/141 140/140/140
f 115/115/115 114/114/114 113/113/113
f 21/21/21 115/115/115 113/113/113
f 117/117/117 19/19/19 116/116/116
f 118/118/118 117/117/117 116/116/116
f 121/121/121 120/120/120 119/119/119
f 25/25/25 121/121/121 119/119/119
f 124/124/124 123/123/123 122/122/122
f 26/26/26 124/124/124 122/122/122
f 127/127/127 126/126/126 125/125/125
f 24/24/24 127/127/127 125/125/125
f 129/129/129 128/128/128 31/31/31
f 130/130/130 129/129/129 31/31/31
f 131/131/131 32/32/32 33/33/33
f 132/132/132 131/131/131 33/33/33
f 135/135/135 134/134/134 133/133/133
f 136/136/136 135/135/135 133/133/133
f 36/36/36 82/82/82 80/80/80
f 35/35/35 36/36/36 80/80/80
f 37/37/37 84/84/84 145/145/145
f 146/146/146 37/37/37 145/145/145
f 38/38/38 86/86/86 147/147/147
f 148/148/148 38/38/38 147/147/147
f 39/39/39 88/88/88 149/149/149
f 150/150/150 39/39/39 149/149/149
f 40/40/40 90/90/90 151/151/151
f 152/152/152 40/40/40 151/151/151
f 41/41/41 92/92/92 153/153/153
f 154/154/154 41/41/41 153/153/153
f 42/42/42 94/94/94 155/155/155
f 156/156/156 42/42/42 155/155/155
f 159/159/159 158/158/158 157/157/157
f 160/160/160 159/159/159 157/157/157
f 164/164/164 163/163/163 161/161/161
f 163/163/163 162/162/162 161/161/161
f 165/165/165 162/162/162 163/163/163
f 166/166/166 165/165/165 163/163/163
f 167/167/167 165/165/165 166/166/166
f 168/168/168 167/167/167 166/166/166
f 46/46/46 43/43/43 44/44/44
f 45/45/45 46/46/46 44/44/44
f 50/50/50 54/54/54 51/51/51
f 49/49/49 50/50/50 51/51/51
f 53/53/53 47/47/47 48/48/48
f 52/52/52 53/53/53 48/48/48
f 58/58/58 56/56/56 169/169/169
f 170/170/170 58/58/58 169/169/169
f 57/57/57 172/172/172 171/171/171
f 173/173/173 57/57/57 171/171/171
f 55/55/55 175/175/175 174/174/174
f 176/176/176 55/55/55 174/174/174
f 179/179/179 178/178/178 177/177/177
f 180/180/180 179/179/179 177/177/177
f 182/182/182 62/62/62 181/181/181
f 62/62/62 60/60/60 181/181/181
f 181/181/181 60/60/60 188/188/188
f 60/60/60 59/59/59 188/188/188
f 188/188/188 59/59/59 186/186/186
f 59/59/59 187/187/187 186/186/186
f 61/61/61 184/184/184 183/183/183
f 185/185/185 61/61/61 183/183/183
f 73/73/73 74/74/74 72/72/72
f 71/71/71 73/73/73 72/72/72
f 71/71/71 72/72/72 215/215/215
f 219/219/219 71/71/71 215/215/215
f 215/215/215 72/72/72 213/213/213
f 72/72/72 214/214/214 213/213/213
f 64/64/64 66/66/66 78/78/78
f 66/66/66 67/67/67 78/78/78
f 78/78/78 67/67/67 220/220/220
f 67/67/67 216/216/216 220/220/220
f 67/67/67 218/218/218 216/216/216
f 218/218/218 217/217/217 216/216/216
f 190/190/190 65/65/65 189/189/189
f 191/191/191 190/190/190 189/189/189
f 194/194/194 193/193/193 192/192/192
f 63/63/63 194/194/194 192/192/192
f 196/196/196 69/69/69 195/195/195
f 197/197/197 196/196/196 195/195/195
f 199/199/199 70/70/70 198/198/198
f 200/200/200 199/199/199 198/198/198
f 202/202/202 68/68/68 201/201/201
f 203/203/203 202/202/202 201/201/201
f 205/205/205 204/204/204 75/75/75
f 206/206/206 205/205/205 75/75/75
f 208/208/208 207/207/207 77/77/77
f 76/76/76 208/208/208 77/77/77
f 211/211/211 210/210/210 209/209/209
f 212/212/212 211/211/211 209/209/209
f 81/81/81 79/79/79 221/221/221
f 222/222/222 81/81/81 221/221/221
f 83/83/83 224/224/224 223/223/223
f 225/225/225 83/83/83 223/223/223
f 85/85/85 227/227/227 226/226/226
f 228/228/228 85/85/85 226/226/226
f 87/87/87 230/230/230 229/229/229
f 231/231/231 87/87/87 229/229/229
f 89/89/89 233/233/233 232/232/232
f 234/234/234 89/89/89 232/232/232
f 91/91/91 236/236/236 235/235/235
f 237/237/237 91/91/91 235/235/235
f 93/93/93 239/239/239 238/238/238
f 240/240/240 93/93/93 238/238/238
f 243/243/243 242/242/242 241/241/241
f 244/244/244 243/243/243 241/241/241
f 112/112/112 111/111/111 4/4/4
f 111/111/111 3/3/3 4/4/4
f 112/112/112 4/4/4 2/2/2
f 111/111/111 110/110/110 3/3/3
f 109/109/109 112/112/112 2/2/2
f 110/110/110 1/1/1 3/3/3
f 109/109/109 2/2/2 1/1/1
f 110/110/110 109/109/109 1/1/1
