g front_010
v -0.75 5.7217627 -6.4576045E-07
v 0.75 5.7217627 -6.4576045E-07
v 0.6186708 2.5918055 -4.514543E-07
v -0.62486887 2.5918055 -4.514543E-07
v 0.61671335 0.04088974 -2.9309479E-07
v -0.6268263 0.04088974 -2.9309479E-07
v 0.6186708 2.5918055 -4.514543E-07
v -0.62486887 2.5918055 -4.514543E-07
vt 0 1
vt 0.5 1
vt 0.45718932 0.021188136
vt 0.04267613 0.02122531
vt 1.0177307 0.0037524775
vt 0.61518526 0.0037961628
vt 1.0176 0.94474226
vt 0.6150546 0.94478595
vn -0 0 1
vn -0 0 1
vn -0 0 1
vn -0 0 1
vn -0 0 1
vn -0 0 1
vn -0 0 1
vn -0 0 1
g front_010_0
f 2/2/2 1/1/1 4/4/4
f 3/3/3 2/2/2 4/4/4
f 6/6/6 5/5/5 7/7/7
f 8/8/8 6/6/6 7/7/7
