g front_013_00
v -0.74356663 1.8752061 0.5721359
v -0.9641055 1.8752064 -0.033789277
v -0.9641055 0.013064539 -0.033789694
v 0.94694656 1.9035366 -0.043160528
v -0.9348215 1.9035369 -0.04444781
v 0.9762306 1.8752061 -0.05381906
v 0.75569165 0.013064539 -0.65974474
v 0.75569177 1.8752064 -0.65974426
v 0.9762304 0.01306442 -0.053819537
v -0.7142825 1.9035366 0.5614774
v 0.72640765 1.9035369 -0.64908576
v -0.74356663 0.01306442 0.57213545
v -0.42093688 1.9030862 0.22488311
v 0.0038282126 1.9030861 0.22488305
v 0.0038282275 2.108355 0.22488311
v -0.42093682 2.1083553 0.22488317
v -0.1383311 1.900303 0.08136451
v 0.20148085 1.9003029 0.08136448
v 0.20148088 2.2287335 0.08136456
v -0.1383311 2.2287335 0.0813646
v 0.11662102 1.6009881 0.28165692
v 0.83705497 1.6009881 0.018455535
v 0.8370552 1.924486 0.018455938
v 0.11662102 1.924486 0.2816574
v 0.77659225 1.924486 -0.27215075
v 0.027448654 1.924486 0.020540237
v -0.74356663 1.8752061 0.5721359
v -0.7142825 1.9035366 0.5614774
v 0.94694656 1.9035366 -0.043160528
v 0.9762306 1.8752061 -0.05381906
v 0.9762304 0.01306442 -0.053819537
v 0.75569165 0.013064539 -0.65974474
v -0.9641055 0.013064539 -0.033789694
v -0.74356663 0.01306442 0.57213545
v -0.9348215 1.9035369 -0.04444781
v -0.7142825 1.9035366 0.5614774
v 0.94694656 1.9035366 -0.043160528
v 0.72640765 1.9035369 -0.64908576
v -0.74356663 0.01306442 0.57213545
v 0.9762304 0.01306442 -0.053819537
v 0.11662102 1.924486 0.2816574
v 0.8370552 1.924486 0.018455938
vt 0.24795148 0.8508935
vt 0.24777833 0.85068655
vt 0.24777833 0.024770122
vt 0.61110777 0.8636073
vt 0.25427613 0.9374418
vt 0.61739856 0.8508935
vt 0.17244081 0.024770122
vt 0.17244081 0.85068655
vt 0.24777833 0.024770122
vt 0.2542423 0.8636075
vt 0.6111416 0.9374417
vt 0.17244081 0.024770122
vt 0.013088043 0.47454748
vt 0.12403466 0.47454748
vt 0.12403466 0.58655214
vt 0.013088043 0.5865524
vt 0.018342763 0.2291465
vt 0.10709999 0.2291465
vt 0.10709999 0.40835404
vt 0.018342763 0.40835404
vt 0.0029221168 0.017334856
vt 0.15606576 0.018004365
vt 0.15578327 0.11696312
vt 0.0026396504 0.1162937
vt 0.16467643 0.1711528
vt 0.0036447337 0.16664758
vt 0.17244081 0.85068643
vt 0.2542423 0.8636075
vt 0.61110777 0.8636073
vt 0.24777843 0.85068655
vt 0.4830199 -0.69433475
vt 0.43348932 -0.69433475
vt 0.047241963 -0.6943346
vt 0.09677252 -0.6943346
vt 0.24778756 0.8634006
vt 0.17244992 0.86340034
vt 0.24778756 0.86340034
vt 0.17245004 0.8634006
vt 0.24795148 0.024977189
vt 0.61739844 0.02497707
vt 0.0026396504 0.1162937
vt 0.15578327 0.11696312
vn 0.34202015 0 0.9396926
vn -0.9395649 0.016482167 0.34197387
vn -0.93969256 0 0.34202033
vn 0.34202012 0 0.9396926
vn -0.014796117 0.999876 0.005385939
vn 0.34202015 0 0.9396926
vn 0.93969256 0 -0.34202018
vn 0.93956494 0.016482258 -0.34197378
vn 0.93969256 0 -0.34202015
vn 0.3420201 0 0.9396926
vn 0.014796485 0.999876 -0.005384896
vn -0.93969256 0 0.3420203
vn -0 0 1
vn -0 0 1
vn -0 0 1
vn -0 0 1
vn -0 0 1
vn -0 0 1
vn -0 0 1
vn -0 0 1
vn 0.34315374 0 0.93927926
vn 0.34315372 0 0.93927926
vn 0.34315374 0 0.93927926
vn 0.34315374 0 0.93927926
vn -0 1 0
vn -0 1 0
vn -0.9395649 0.016482163 0.34197384
vn -0.014796111 0.999876 0.0053859367
vn 0.014796508 0.999876 -0.005384905
vn 0.93956494 0.016482238 -0.3419737
vn -0 -1 0
vn -0 -1 0
vn -0 -1 0
vn -0 -1 0
vn -0.014796117 0.999876 0.005385939
vn -0.014796111 0.999876 0.0053859367
vn 0.014796508 0.999876 -0.005384905
vn 0.014796485 0.999876 -0.005384896
vn 0.34202012 0 0.9396926
vn 0.34202012 0 0.9396926
vn -0 1 0
vn -0 1 0
g front_013_00_0
f 4/4/4 10/10/10 1/1/1
f 6/6/6 4/4/4 1/1/1
f 6/6/6 1/1/1 39/39/39
f 40/40/40 6/6/6 39/39/39
f 2/2/2 3/3/3 12/12/12
f 27/27/27 2/2/2 12/12/12
f 35/35/35 2/2/2 27/27/27
f 36/36/36 35/35/35 27/27/27
f 11/11/11 5/5/5 28/28/28
f 29/29/29 11/11/11 28/28/28
f 9/9/9 7/7/7 30/30/30
f 7/7/7 8/8/8 30/30/30
f 30/30/30 8/8/8 37/37/37
f 8/8/8 38/38/38 37/37/37
f 33/33/33 32/32/32 31/31/31
f 34/34/34 33/33/33 31/31/31
f 15/15/15 16/16/16 13/13/13
f 14/14/14 15/15/15 13/13/13
f 19/19/19 20/20/20 17/17/17
f 18/18/18 19/19/19 17/17/17
f 23/23/23 24/24/24 21/21/21
f 22/22/22 23/23/23 21/21/21
f 25/25/25 26/26/26 41/41/41
f 42/42/42 25/25/25 41/41/41
