g front_009
v 0.8475066 -0.0030845287 -0.12011728
v -0.75564927 -0.010119605 0.2683105
v 0.49166337 -0.010119545 0.2683105
v 0.71025413 1.5486679 0.07991643
v -0.5327131 1.5486679 0.07991643
v 0.58748907 1.4541638 0.06827724
v 0.29603454 1.3984447 0.068277225
v 0.077443615 -0.0030845287 -0.12011728
v -0.2112561 -0.010119605 0.2683105
v -0.28002048 -0.020645488 -0.12011731
v 0.24735588 -0.010119545 0.2683105
v 0.19573598 -0.020645488 -0.12011731
v -0.40860337 0.42079818 -0.05102548
v 0.050008714 0.4207983 -0.05102548
vt 1 0
vt 0 0.22069627
vt 0.6235843 0.22069632
vt 0.732867 1
vt 0.1114552 1
vt 0.8700062 0.7285397
vt 0.7242958 0.7006834
vt 0.615013 0
vt 0.27216515 0.2206963
vt 0.33644918 0
vt 0.50144464 0.22069632
vt 0.5742999 0
vt 0.27216515 0.2206963
vt 0.50144464 0.22069632
vn 0.0068536163 -0.13056996 0.9914153
vn -0 0.119986236 0.99277556
vn -0 0.11998622 0.99277556
vn -0 0.119986214 0.99277556
vn -0 0.11998622 0.99277556
vn 0.006853617 -0.13056995 0.9914153
vn 0.0068536163 -0.13056996 0.9914153
vn 0.0068536163 -0.13056995 0.9914153
vn -0 0.11998621 0.99277556
vn -0 -0.15463082 0.9879723
vn -0 0.119986214 0.99277556
vn -0 -0.15463084 0.9879723
vn -0 -0.15463081 0.9879723
vn -0 -0.15463082 0.9879723
g front_009_0
f 3/3/3 4/4/4 5/5/5
f 5/5/5 11/11/11 3/3/3
f 5/5/5 9/9/9 11/11/11
f 5/5/5 2/2/2 9/9/9
f 7/7/7 8/8/8 1/1/1
f 6/6/6 7/7/7 1/1/1
f 10/10/10 12/12/12 14/14/14
f 13/13/13 10/10/10 14/14/14
