g furniture_back_mint_003_00
v 0.443618 -0.25 3.282095
v 0.79231 -0.25 3.282095
v 1.045973 -0.25 3.182796
v 1.25 -0.25 3.231316
v 0.617964 -0.25 3.351213
v 0.512554 -0.25 3.323089
v 0.79231 -0.25 -1.2E-05
v 1.181991 -0.25 3.230737
v 1.113982 -0.25 3.218423
v 1.25 -0.25 -1.2E-05
v 0.723374 -0.25 3.323089
v 0.177219 -0.25 -1.2E-05
v 0.002873 -0.25 3.457101
v 0.177219 -0.25 3.387982
v 0.108284 -0.25 3.428976
v -0.102537 -0.25 3.428976
v -0.171473 -0.25 3.387982
v -0.443618 -0.25 -1.2E-05
v -0.443618 -0.25 3.282095
v -0.79231 -0.25 3.282095
v -1.045973 -0.25 -1.2E-05
v -1.045973 -0.25 3.182796
v -1.25 -0.25 3.231316
v -0.617964 -0.25 3.351213
v -0.512554 -0.25 3.323089
v -1.181991 -0.25 3.230737
v -1.113982 -0.25 3.218423
v -1.25 -0.25 -1.2E-05
v -0.723374 -0.25 3.323089
v 0.443618 -0.25 3.235315
v 0.79231 -0.25 3.249293
v 1.045973 -0.25 3.120394
v 0.177219 -0.25 3.351983
v -0.171473 -0.25 3.351983
v -0.443618 -0.25 3.236985
v -0.79231 -0.25 3.249293
v -1.045973 -0.25 3.125472
v -0.79231 -0.25 -1.2E-05
v -0.171473 -0.25 -1.2E-05
v 0.443618 -0.25 -1.2E-05
v 1.045973 -0.25 -1.2E-05
v -0.876864 -0.25 3.233396
v -0.961418 -0.25 3.190731
v -0.262188 -0.25 3.333263
v -0.352903 -0.25 3.300642
v 0.354818 -0.25 3.31178
v 0.266019 -0.25 3.338869
v 0.961418 -0.25 3.205115
v 0.876864 -0.25 3.240549
v 0.443618 0.25 3.282095
v 0.79231 0.25 3.282095
v 1.045973 0.25 3.182796
v 1.25 0.25 3.231316
v 0.617964 0.25 3.351213
v 0.512554 0.25 3.323089
v 0.79231 0.25 -1.2E-05
v 1.181991 0.25 3.230737
v 1.113982 0.25 3.218423
v 1.25 0.25 -1.2E-05
v 0.723374 0.25 3.323089
v 0.177219 0.25 -1.2E-05
v 0.002873 0.25 3.457101
v 0.177219 0.25 3.387982
v 0.108284 0.25 3.428976
v -0.102537 0.25 3.428976
v -0.171473 0.25 3.387982
v -0.443618 0.25 -1.2E-05
v -0.443618 0.25 3.282095
v -0.79231 0.25 3.282095
v -1.045973 0.25 -1.2E-05
v -1.045973 0.25 3.182796
v -1.25 0.25 3.231316
v -0.617964 0.25 3.351213
v -0.512554 0.25 3.323089
v -1.181991 0.25 3.230737
v -1.113982 0.25 3.218423
v -1.25 0.25 -1.2E-05
v -0.723374 0.25 3.323089
v 0.443618 0.25 3.235315
v 0.79231 0.25 3.249293
v 1.045973 0.25 3.120394
v 0.177219 0.25 3.351983
v -0.171473 0.25 3.351983
v -0.443618 0.25 3.236985
v -0.79231 0.25 3.249293
v -1.045973 0.25 3.125472
v -0.79231 0.25 -1.2E-05
v -0.171473 0.25 -1.2E-05
v 0.443618 0.25 -1.2E-05
v 1.045973 0.25 -1.2E-05
v -0.876864 0.25 3.233396
v -0.961418 0.25 3.190731
v -0.262188 0.25 3.333263
v -0.352903 0.25 3.300642
v 0.354818 0.25 3.31178
v 0.266019 0.25 3.338869
v 0.961418 0.25 3.205115
v 0.876864 0.25 3.240549
v 0.443618 -0.25 3.235315
v 0.443618 -0.25 3.282095
v 0.723374 -0.25 3.323089
v 0.79231 -0.25 3.282095
v 1.045973 -0.25 3.120394
v 1.045973 -0.25 3.182796
v 1.181991 -0.25 3.230737
v 1.25 -0.25 3.231316
v 1.25 -0.25 3.231316
v 1.25 0.25 3.231316
v 1.25 -0.25 -1.2E-05
v 0.443618 -0.25 3.282095
v 0.443618 0.25 3.282095
v 0.512554 -0.25 3.323089
v 0.79231 -0.25 -1.2E-05
v 0.443618 -0.25 -1.2E-05
v 1.113982 -0.25 3.218423
v 1.181991 0.25 3.230737
v 1.181991 -0.25 3.230737
v 1.045973 -0.25 3.182796
v 1.045973 0.25 3.182796
v 1.113982 0.25 3.218423
v 1.113982 -0.25 3.218423
v 1.25 -0.25 -1.2E-05
v 1.25 0.25 -1.2E-05
v 1.045973 -0.25 -1.2E-05
v 0.617964 -0.25 3.351213
v 0.723374 0.25 3.323089
v 0.723374 -0.25 3.323089
v 0.512554 -0.25 3.323089
v 0.512554 0.25 3.323089
v 0.617964 0.25 3.351213
v 0.617964 -0.25 3.351213
v 0.177219 -0.25 -1.2E-05
v -0.171473 -0.25 -1.2E-05
v 0.108284 -0.25 3.428976
v 0.177219 -0.25 3.387982
v -0.171473 -0.25 3.387982
v -0.102537 -0.25 3.428976
v -0.171473 -0.25 3.351983
v -0.171473 0.25 3.387982
v -0.171473 -0.25 3.387982
v 0.002873 -0.25 3.457101
v 0.108284 0.25 3.428976
v 0.108284 -0.25 3.428976
v -0.102537 -0.25 3.428976
v -0.102537 0.25 3.428976
v 0.002873 0.25 3.457101
v 0.002873 -0.25 3.457101
v -0.79231 -0.25 3.282095
v -0.723374 -0.25 3.323089
v -0.79231 -0.25 3.249293
v -0.79231 0.25 3.282095
v -0.79231 -0.25 3.282095
v -1.25 -0.25 3.231316
v -1.181991 -0.25 3.230737
v -1.25 -0.25 -1.2E-05
v -1.25 0.25 3.231316
v -1.25 -0.25 3.231316
v -0.512554 -0.25 3.323089
v -0.443618 -0.25 3.282095
v -0.443618 -0.25 -1.2E-05
v -0.79231 -0.25 -1.2E-05
v -1.181991 -0.25 3.230737
v -1.181991 0.25 3.230737
v -1.113982 -0.25 3.218423
v -1.113982 -0.25 3.218423
v -1.113982 0.25 3.218423
v -1.045973 -0.25 3.182796
v -1.045973 -0.25 -1.2E-05
v -1.25 0.25 -1.2E-05
v -1.25 -0.25 -1.2E-05
v -0.723374 -0.25 3.323089
v -0.723374 0.25 3.323089
v -0.617964 -0.25 3.351213
v -0.617964 -0.25 3.351213
v -0.617964 0.25 3.351213
v -0.512554 0.25 3.323089
v -0.512554 -0.25 3.323089
v 0.79231 -0.25 3.282095
v 0.79231 0.25 3.282095
v 0.79231 -0.25 3.249293
v 0.177219 -0.25 3.387982
v 0.177219 0.25 3.387982
v 0.177219 -0.25 3.351983
v -0.443618 -0.25 3.282095
v -0.443618 0.25 3.282095
v -0.443618 -0.25 3.236985
v -1.045973 -0.25 3.182796
v -1.045973 0.25 3.182796
v -1.045973 -0.25 3.125472
v -0.876864 -0.25 3.233396
v -0.79231 0.25 3.249293
v -0.79231 -0.25 3.249293
v -0.262188 -0.25 3.333263
v -0.171473 0.25 3.351983
v -0.171473 -0.25 3.351983
v 0.354818 -0.25 3.31178
v 0.443618 0.25 3.235315
v 0.443618 -0.25 3.235315
v 0.961418 -0.25 3.205115
v 1.045973 0.25 3.120394
v 1.045973 -0.25 3.120394
v -0.961418 -0.25 3.190731
v -0.876864 0.25 3.233396
v -0.876864 -0.25 3.233396
v -1.045973 -0.25 3.125472
v -1.045973 0.25 3.125472
v -0.961418 0.25 3.190731
v -0.961418 -0.25 3.190731
v -0.352903 -0.25 3.300642
v -0.262188 0.25 3.333263
v -0.262188 -0.25 3.333263
v -0.443618 -0.25 3.236985
v -0.443618 0.25 3.236985
v -0.352903 0.25 3.300642
v -0.352903 -0.25 3.300642
v 0.266019 -0.25 3.338869
v 0.354818 0.25 3.31178
v 0.354818 -0.25 3.31178
v 0.177219 -0.25 3.351983
v 0.177219 0.25 3.351983
v 0.266019 0.25 3.338869
v 0.266019 -0.25 3.338869
v 0.876864 -0.25 3.240549
v 0.961418 0.25 3.205115
v 0.961418 -0.25 3.205115
v 0.79231 -0.25 3.249293
v 0.79231 0.25 3.249293
v 0.876864 0.25 3.240549
v 0.876864 -0.25 3.240549
vt 0.340239 0.637371
vt 0.395314 0.637371
vt 0.453309 0.618541
vt 0.48761 0.627742
vt 0.367458 0.650478
vt 0.347419 0.645145
vt 0.398146 0.014991
vt 0.474681 0.627633
vt 0.461752 0.625297
vt 0.48761 0.014991
vt 0.387497 0.645145
vt 0.281501 0.014991
vt 0.250527 0.670557
vt 0.279946 0.657451
vt 0.270566 0.665224
vt 0.230488 0.665224
vt 0.221361 0.657451
vt 0.163251 0.014991
vt 0.160897 0.637371
vt 0.105806 0.637371
vt 0.055028 0.014991
vt 0.051138 0.618541
vt 0.012352 0.627742
vt 0.132504 0.650478
vt 0.152543 0.645145
vt 0.025281 0.627633
vt 0.03821 0.625297
vt 0.012352 0.014991
vt 0.112465 0.645145
vt 0.336462 0.628501
vt 0.398146 0.631151
vt 0.448824 0.606708
vt 0.281501 0.650624
vt 0.217383 0.650624
vt 0.163251 0.628817
vt 0.101013 0.631151
vt 0.055028 0.607671
vt 0.101013 0.014991
vt 0.217383 0.014991
vt 0.336462 0.014991
vt 0.448824 0.014991
vt 0.083286 0.628137
vt 0.067212 0.620046
vt 0.200138 0.647074
vt 0.182893 0.640888
vt 0.317433 0.643
vt 0.300552 0.648137
vt 0.43275 0.622774
vt 0.416676 0.629493
vt 0.340239 0.705485
vt 0.395314 0.705485
vt 0.453309 0.686655
vt 0.48761 0.695856
vt 0.367458 0.718592
vt 0.347419 0.713259
vt 0.304984 -0.287275
vt 0.474681 0.695746
vt 0.461752 0.693411
vt 0.012667 0.894217
vt 0.387497 0.713259
vt 0.207669 -0.287275
vt 0.250527 0.738671
vt 0.279946 0.725564
vt 0.270566 0.733338
vt 0.230488 0.733338
vt 0.221361 0.725564
vt 0.109445 -0.287275
vt 0.160897 0.705485
vt 0.105806 0.705485
vt 0.014145 -0.287275
vt 0.051138 0.686655
vt 0.012352 0.695856
vt 0.132504 0.718592
vt 0.152543 0.713259
vt 0.025281 0.695746
vt 0.03821 0.693411
vt 0.012667 0.894216
vt 0.112465 0.713259
vt 0.336462 0.696614
vt 0.398146 0.699265
vt 0.448824 0.674822
vt 0.281501 0.718738
vt 0.217383 0.718738
vt 0.163251 0.696931
vt 0.101013 0.699265
vt 0.055028 0.675785
vt 0.054277 -0.287275
vt 0.152502 -0.287275
vt 0.249817 -0.287275
vt 0.345117 -0.287275
vt 0.083286 0.69625
vt 0.067212 0.68816
vt 0.200138 0.715188
vt 0.182893 0.709002
vt 0.317433 0.711114
vt 0.300552 0.716251
vt 0.43275 0.690887
vt 0.416676 0.697607
vt 0.336462 0.628501
vt 0.340239 0.637371
vt 0.387497 0.645145
vt 0.395314 0.637371
vt 0.448824 0.606708
vt 0.453309 0.618541
vt 0.474681 0.627633
vt 0.48761 0.627742
vt 0.625418 0.792708
vt 0.625418 0.894217
vt 0.012667 0.792708
vt 0.340239 0.637371
vt 0.340239 0.705485
vt 0.347419 0.645145
vt 0.304984 -0.287275
vt 0.249817 -0.287275
vt 0.461752 0.625297
vt 0.474681 0.695746
vt 0.474681 0.627633
vt 0.453309 0.618541
vt 0.453309 0.686655
vt 0.461752 0.693411
vt 0.461752 0.625297
vt 0.377397 -0.287275
vt 0.377397 -0.287275
vt 0.345117 -0.287275
vt 0.367458 0.650478
vt 0.387497 0.713259
vt 0.387497 0.645145
vt 0.347419 0.645145
vt 0.347419 0.713259
vt 0.367458 0.718592
vt 0.367458 0.650478
vt 0.207669 -0.287275
vt 0.152502 -0.287275
vt 0.270566 0.665224
vt 0.279946 0.657451
vt 0.221361 0.657451
vt 0.230488 0.665224
vt 0.217383 0.650624
vt 0.221361 0.725564
vt 0.221361 0.657451
vt 0.250527 0.670557
vt 0.270566 0.733338
vt 0.270566 0.665224
vt 0.230488 0.665224
vt 0.230488 0.733338
vt 0.250527 0.738671
vt 0.250527 0.670557
vt 0.105806 0.637371
vt 0.112465 0.645145
vt 0.101013 0.631151
vt 0.105806 0.705485
vt 0.105806 0.637371
vt 0.012352 0.627742
vt 0.025281 0.627633
vt 0.012667 0.792708
vt 0.625418 0.894216
vt 0.625418 0.792708
vt 0.152543 0.645145
vt 0.160897 0.637371
vt 0.109445 -0.287275
vt 0.054277 -0.287275
vt 0.025281 0.627633
vt 0.025281 0.695746
vt 0.03821 0.625297
vt 0.03821 0.625297
vt 0.03821 0.693411
vt 0.051138 0.618541
vt 0.014145 -0.287275
vt -0.018135 -0.287275
vt -0.018135 -0.287275
vt 0.112465 0.645145
vt 0.112465 0.713259
vt 0.132504 0.650478
vt 0.132504 0.650478
vt 0.132504 0.718592
vt 0.152543 0.713259
vt 0.152543 0.645145
vt 0.395314 0.637371
vt 0.395314 0.705485
vt 0.398146 0.631151
vt 0.279946 0.657451
vt 0.279946 0.725564
vt 0.281501 0.650624
vt 0.160897 0.637371
vt 0.160897 0.705485
vt 0.163251 0.628817
vt 0.051138 0.618541
vt 0.051138 0.686655
vt 0.055028 0.607671
vt 0.083286 0.628137
vt 0.101013 0.699265
vt 0.101013 0.631151
vt 0.200138 0.647074
vt 0.217383 0.718738
vt 0.217383 0.650624
vt 0.317433 0.643
vt 0.336462 0.696614
vt 0.336462 0.628501
vt 0.43275 0.622774
vt 0.448824 0.674822
vt 0.448824 0.606708
vt 0.067212 0.620046
vt 0.083286 0.69625
vt 0.083286 0.628137
vt 0.055028 0.607671
vt 0.055028 0.675785
vt 0.067212 0.68816
vt 0.067212 0.620046
vt 0.182893 0.640888
vt 0.200138 0.715188
vt 0.200138 0.647074
vt 0.163251 0.628817
vt 0.163251 0.696931
vt 0.182893 0.709002
vt 0.182893 0.640888
vt 0.300552 0.648137
vt 0.317433 0.711114
vt 0.317433 0.643
vt 0.281501 0.650624
vt 0.281501 0.718738
vt 0.300552 0.716251
vt 0.300552 0.648137
vt 0.416676 0.629493
vt 0.43275 0.690887
vt 0.43275 0.622774
vt 0.398146 0.631151
vt 0.398146 0.699265
vt 0.416676 0.697607
vt 0.416676 0.629493
vn -0 -1 0
vn -0 -1 0
vn -0 -1 0
vn -0 -1 0
vn -0 -1 0
vn -0 -1 0
vn -0 -1 0
vn -0 -1 0
vn -0 -1 0
vn -0 -1 0
vn -0 -1 0
vn -0 -1 0
vn -0 -1 0
vn -0 -1 0
vn -0 -1 0
vn -0 -1 0
vn -0 -1 0
vn -0 -1 0
vn -0 -1 0
vn -0 -1 0
vn -0 -1 0
vn -0 -1 0
vn -0 -1 0
vn -0 -1 0
vn -0 -1 0
vn -0 -1 0
vn -0 -1 0
vn -0 -1 0
vn -0 -1 0
vn -0 -1 0
vn -0 -1 0
vn -0 -1 0
vn -0 -1 0
vn -0 -1 0
vn -0 -1 0
vn -0 -1 0
vn -0 -1 0
vn -0 -1 0
vn -0 -1 0
vn -0 -1 0
vn -0 -1 0
vn -0 -1 0
vn -0 -1 0
vn -0 -1 0
vn -0 -1 0
vn -0 -1 0
vn -0 -1 0
vn -0 -1 0
vn -0 -1 0
vn -1 0 0
vn 0.51111966 0 0.85950947
vn -1 0 0
vn -0.008500999 0 0.9999639
vn 0.25779304 0 0.9662002
vn -0.51112014 0 0.8595092
vn -0 0 -1
vn -0.008500999 0 0.9999639
vn -0.17816705 0 0.98400027
vn 1 0 0
vn 0.51111966 0 0.85950947
vn -0 0 -1
vn 0.25779304 0 0.9662002
vn 0.511119 0 0.85951
vn 0.511119 0 0.85951
vn -0.51112014 0 0.8595092
vn -0.51112014 0 0.8595092
vn -0 0 -1
vn 0.511119 0 0.85951
vn -0.511119 0 0.85951
vn -0 0 -1
vn 0.46404213 0 0.8858132
vn 0.008500999 0 0.9999639
vn -0.25779304 0 0.9662002
vn 0.511119 0 0.85951
vn 0.008500999 0 0.9999639
vn 0.17816705 0 0.98400027
vn -1 0 0
vn -0.511119 0 0.85951
vn -1 0 0
vn 1 0 0
vn -1 0 0
vn 1 0 0
vn -1 0 0
vn 1 0 0
vn -1 0 0
vn 1 0 0
vn -0 0 -1
vn -0 0 -1
vn -0 0 -1
vn -0 0 -1
vn -0.18477808 0 0.98278034
vn -0.4504842 0 0.89278436
vn -0.20209594 0 0.9793657
vn -0.33839 0 0.94100595
vn 0.6525165 0 0.75777453
vn 0.29178405 0 0.95648426
vn 0.7078049 0 0.70640796
vn 0.38650307 0 0.9222881
vn -1 0 0
vn -1 0 0
vn 0.51111966 0 0.85950947
vn 0.51111966 0 0.85950947
vn -1 0 0
vn -1 0 0
vn -0.008500999 0 0.9999639
vn -0.008500999 0 0.9999639
vn 1 0 0
vn 1 0 0
vn 1 0 0
vn -0.51112014 0 0.8595092
vn -0.51112014 0 0.8595092
vn -0.51112014 0 0.8595092
vn -0 0 -1
vn -0 0 -1
vn -0.17816705 0 0.98400027
vn -0.17816705 0 0.98400027
vn -0.17816705 0 0.98400027
vn -0.46404088 0 0.88581383
vn -0.46404088 0 0.88581383
vn -0.46404088 0 0.88581383
vn -0.46404088 0 0.88581383
vn -0 0 -1
vn -0 0 -1
vn -0 0 -1
vn 0.25779304 0 0.9662002
vn 0.25779304 0 0.9662002
vn 0.25779304 0 0.9662002
vn -0.25779212 0 0.9662004
vn -0.25779212 0 0.9662004
vn -0.25779212 0 0.9662004
vn -0.25779212 0 0.9662004
vn -0 0 -1
vn -0 0 -1
vn 0.511119 0 0.85951
vn 0.511119 0 0.85951
vn -0.51112014 0 0.8595092
vn -0.51112014 0 0.8595092
vn -1 0 0
vn -1 0 0
vn -1 0 0
vn 0.25779304 0 0.9662002
vn 0.25779304 0 0.9662002
vn 0.25779304 0 0.9662002
vn -0.25779304 0 0.9662002
vn -0.25779304 0 0.9662002
vn -0.25779304 0 0.9662002
vn -0.25779304 0 0.9662002
vn -0.511119 0 0.85951
vn -0.511119 0 0.85951
vn -1 0 0
vn -1 0 0
vn -1 0 0
vn 0.008500999 0 0.9999639
vn 0.008500999 0 0.9999639
vn -1 0 0
vn -1 0 0
vn -1 0 0
vn 0.511119 0 0.85951
vn 0.511119 0 0.85951
vn -0 0 -1
vn -0 0 -1
vn 0.17816705 0 0.98400027
vn 0.17816705 0 0.98400027
vn 0.17816705 0 0.98400027
vn 0.46404213 0 0.8858132
vn 0.46404213 0 0.8858132
vn 0.46404213 0 0.8858132
vn -0 0 -1
vn -0 0 -1
vn -0 0 -1
vn -0.25779304 0 0.9662002
vn -0.25779304 0 0.9662002
vn -0.25779304 0 0.9662002
vn 0.25779304 0 0.9662002
vn 0.25779304 0 0.9662002
vn 0.25779304 0 0.9662002
vn 0.25779304 0 0.9662002
vn 1 0 0
vn 1 0 0
vn 1 0 0
vn 1 0 0
vn 1 0 0
vn 1 0 0
vn 1 0 0
vn 1 0 0
vn 1 0 0
vn 1 0 0
vn 1 0 0
vn 1 0 0
vn -0.18477808 0 0.98278034
vn -0.18477808 0 0.98278034
vn -0.18477808 0 0.98278034
vn -0.20209594 0 0.9793657
vn -0.20209594 0 0.9793657
vn -0.20209594 0 0.9793657
vn 0.6525165 0 0.75777453
vn 0.6525165 0 0.75777453
vn 0.6525165 0 0.75777453
vn 0.7078049 0 0.70640796
vn 0.7078049 0 0.70640796
vn 0.7078049 0 0.70640796
vn -0.4504842 0 0.89278436
vn -0.4504842 0 0.89278436
vn -0.4504842 0 0.89278436
vn -0.6109868 0 0.79164076
vn -0.6109868 0 0.79164076
vn -0.6109868 0 0.79164076
vn -0.6109868 0 0.79164076
vn -0.33839 0 0.94100595
vn -0.33839 0 0.94100595
vn -0.33839 0 0.94100595
vn -0.57440996 0 0.8185679
vn -0.57440996 0 0.8185679
vn -0.57440996 0 0.8185679
vn -0.57440996 0 0.8185679
vn 0.29178405 0 0.95648426
vn 0.29178405 0 0.95648426
vn 0.29178405 0 0.95648426
vn 0.14609103 0 0.98927116
vn 0.14609103 0 0.98927116
vn 0.14609103 0 0.98927116
vn 0.14609103 0 0.98927116
vn 0.38650307 0 0.9222881
vn 0.38650307 0 0.9222881
vn 0.38650307 0 0.9222881
vn 0.10286404 0 0.9946955
vn 0.10286404 0 0.9946955
vn 0.10286404 0 0.9946955
vn 0.10286404 0 0.9946955
g furniture_back_mint_003_00_0
f 1/1/1 30/30/30 6/6/6
f 30/30/30 40/40/40 6/6/6
f 30/30/30 46/46/46 40/40/40
f 40/40/40 5/5/5 6/6/6
f 46/46/46 47/47/47 40/40/40
f 5/5/5 40/40/40 7/7/7
f 47/47/47 12/12/12 40/40/40
f 7/7/7 11/11/11 5/5/5
f 33/33/33 12/12/12 47/47/47
f 31/31/31 11/11/11 7/7/7
f 2/2/2 11/11/11 31/31/31
f 31/31/31 7/7/7 49/49/49
f 7/7/7 41/41/41 49/49/49
f 41/41/41 48/48/48 49/49/49
f 32/32/32 48/48/48 41/41/41
f 32/32/32 41/41/41 9/9/9
f 3/3/3 32/32/32 9/9/9
f 9/9/9 41/41/41 10/10/10
f 8/8/8 9/9/9 10/10/10
f 4/4/4 8/8/8 10/10/10
f 33/33/33 15/15/15 12/12/12
f 14/14/14 15/15/15 33/33/33
f 12/12/12 15/15/15 13/13/13
f 13/13/13 39/39/39 12/12/12
f 39/39/39 13/13/13 16/16/16
f 34/34/34 39/39/39 16/16/16
f 17/17/17 34/34/34 16/16/16
f 34/34/34 44/44/44 39/39/39
f 39/39/39 44/44/44 18/18/18
f 44/44/44 45/45/45 18/18/18
f 35/35/35 18/18/18 45/45/45
f 18/18/18 35/35/35 25/25/25
f 35/35/35 19/19/19 25/25/25
f 24/24/24 18/18/18 25/25/25
f 18/18/18 24/24/24 38/38/38
f 29/29/29 38/38/38 24/24/24
f 29/29/29 36/36/36 38/38/38
f 20/20/20 36/36/36 29/29/29
f 36/36/36 42/42/42 38/38/38
f 38/38/38 42/42/42 21/21/21
f 42/42/42 43/43/43 21/21/21
f 37/37/37 21/21/21 43/43/43
f 21/21/21 37/37/37 27/27/27
f 37/37/37 22/22/22 27/27/27
f 28/28/28 21/21/21 27/27/27
f 26/26/26 28/28/28 27/27/27
f 26/26/26 23/23/23 28/28/28
f 50/50/50 79/79/79 99/99/99
f 100/100/100 50/50/50 99/99/99
f 51/51/51 60/60/60 101/101/101
f 102/102/102 51/51/51 101/101/101
f 52/52/52 81/81/81 103/103/103
f 104/104/104 52/52/52 103/103/103
f 53/53/53 57/57/57 105/105/105
f 106/106/106 53/53/53 105/105/105
f 59/59/59 108/108/108 107/107/107
f 109/109/109 59/59/59 107/107/107
f 55/55/55 111/111/111 110/110/110
f 112/112/112 55/55/55 110/110/110
f 116/116/116 58/58/58 115/115/115
f 117/117/117 116/116/116 115/115/115
f 120/120/120 119/119/119 118/118/118
f 121/121/121 120/120/120 118/118/118
f 90/90/90 123/123/123 122/122/122
f 124/124/124 90/90/90 122/122/122
f 56/56/56 90/90/90 124/124/124
f 113/113/113 56/56/56 124/124/124
f 89/89/89 56/56/56 113/113/113
f 114/114/114 89/89/89 113/113/113
f 61/61/61 89/89/89 114/114/114
f 132/132/132 61/61/61 114/114/114
f 88/88/88 61/61/61 132/132/132
f 133/133/133 88/88/88 132/132/132
f 67/67/67 88/88/88 133/133/133
f 160/160/160 67/67/67 133/133/133
f 87/87/87 67/67/67 160/160/160
f 161/161/161 87/87/87 160/160/160
f 70/70/70 87/87/87 161/161/161
f 168/168/168 70/70/70 161/161/161
f 169/169/169 70/70/70 168/168/168
f 170/170/170 169/169/169 168/168/168
f 126/126/126 54/54/54 125/125/125
f 127/127/127 126/126/126 125/125/125
f 130/130/130 129/129/129 128/128/128
f 131/131/131 130/130/130 128/128/128
f 63/63/63 64/64/64 134/134/134
f 135/135/135 63/63/63 134/134/134
f 65/65/65 66/66/66 136/136/136
f 137/137/137 65/65/65 136/136/136
f 139/139/139 83/83/83 138/138/138
f 140/140/140 139/139/139 138/138/138
f 142/142/142 62/62/62 141/141/141
f 143/143/143 142/142/142 141/141/141
f 146/146/146 145/145/145 144/144/144
f 147/147/147 146/146/146 144/144/144
f 78/78/78 69/69/69 148/148/148
f 149/149/149 78/78/78 148/148/148
f 151/151/151 85/85/85 150/150/150
f 152/152/152 151/151/151 150/150/150
f 75/75/75 72/72/72 153/153/153
f 154/154/154 75/75/75 153/153/153
f 156/156/156 77/77/77 155/155/155
f 157/157/157 156/156/156 155/155/155
f 68/68/68 74/74/74 158/158/158
f 159/159/159 68/68/68 158/158/158
f 76/76/76 163/163/163 162/162/162
f 164/164/164 76/76/76 162/162/162
f 71/71/71 166/166/166 165/165/165
f 167/167/167 71/71/71 165/165/165
f 73/73/73 172/172/172 171/171/171
f 173/173/173 73/73/73 171/171/171
f 176/176/176 175/175/175 174/174/174
f 177/177/177 176/176/176 174/174/174
f 80/80/80 179/179/179 178/178/178
f 180/180/180 80/80/80 178/178/178
f 82/82/82 182/182/182 181/181/181
f 183/183/183 82/82/82 181/181/181
f 84/84/84 185/185/185 184/184/184
f 186/186/186 84/84/84 184/184/184
f 86/86/86 188/188/188 187/187/187
f 189/189/189 86/86/86 187/187/187
f 191/191/191 91/91/91 190/190/190
f 192/192/192 191/191/191 190/190/190
f 194/194/194 93/93/93 193/193/193
f 195/195/195 194/194/194 193/193/193
f 197/197/197 95/95/95 196/196/196
f 198/198/198 197/197/197 196/196/196
f 200/200/200 97/97/97 199/199/199
f 201/201/201 200/200/200 199/199/199
f 203/203/203 92/92/92 202/202/202
f 204/204/204 203/203/203 202/202/202
f 207/207/207 206/206/206 205/205/205
f 208/208/208 207/207/207 205/205/205
f 210/210/210 94/94/94 209/209/209
f 211/211/211 210/210/210 209/209/209
f 214/214/214 213/213/213 212/212/212
f 215/215/215 214/214/214 212/212/212
f 217/217/217 96/96/96 216/216/216
f 218/218/218 217/217/217 216/216/216
f 221/221/221 220/220/220 219/219/219
f 222/222/222 221/221/221 219/219/219
f 224/224/224 98/98/98 223/223/223
f 225/225/225 224/224/224 223/223/223
f 228/228/228 227/227/227 226/226/226
f 229/229/229 228/228/228 226/226/226
