g back_008_00_00
v -1 1.5926802 0.046458915
v 1 1.5926802 0.046458915
v 1 1.7625041 0.04645894
v -1 1.7625041 0.04645894
v -1 0.6122806 0.04645889
v 1 0.6122806 0.04645889
v 1 0.7821045 0.04645892
v -1 0.7821045 0.04645892
v -1 1.5926802 0.046458915
v -1 1.7625041 0.04645894
v -1 1.7625041 -0.04802348
v -1 1.7625041 -0.04802348
v -1 1.5926802 -0.04802351
v -1 1.5926802 0.046458915
v -1 1.7625041 0.04645894
v 1 1.7625041 0.04645894
v 1 1.7625041 -0.04802348
v 1 1.7625041 -0.04802348
v -1 1.7625041 -0.04802348
v -1 1.7625041 0.04645894
v 1 1.7625041 0.04645894
v 1 1.5926802 0.046458915
v 1 1.5926802 -0.04802351
v 1 1.5926802 -0.04802351
v 1 1.7625041 -0.04802348
v 1 1.7625041 0.04645894
v 1 1.5926802 0.046458915
v -1 1.5926802 0.046458915
v -1 1.5926802 -0.04802351
v -1 1.5926802 -0.04802351
v 1 1.5926802 -0.04802351
v 1 1.5926802 0.046458915
v -1 0.6122806 0.04645889
v -1 0.7821045 0.04645892
v -1 0.7821045 -0.04802351
v -1 0.7821045 -0.04802351
v -1 0.6122806 -0.048023533
v -1 0.6122806 0.04645889
v -1 0.7821045 0.04645892
v 1 0.7821045 0.04645892
v 1 0.7821045 -0.04802351
v 1 0.7821045 -0.04802351
v -1 0.7821045 -0.04802351
v -1 0.7821045 0.04645892
v 1 0.7821045 0.04645892
v 1 0.6122806 0.04645889
v 1 0.6122806 -0.048023533
v 1 0.6122806 -0.048023533
v 1 0.7821045 -0.04802351
v 1 0.7821045 0.04645892
v 1 0.6122806 0.04645889
v -1 0.6122806 0.04645889
v -1 0.6122806 -0.048023533
v -1 0.6122806 -0.048023533
v 1 0.6122806 -0.048023533
v 1 0.6122806 0.04645889
v -0.86683303 0.0052227974 -0.23678368
v 0.87921554 0.0052227974 -0.23678368
v 0.87921554 1.4879819 -0.23678344
v -0.86683303 1.4879819 -0.23678344
v -1 0.006636858 0.10622929
v 1 0.006636858 0.10622929
v 1 2.6276042 0.106229715
v -1 2.6276042 0.106229715
v 0.96389794 0.0052227825 -0.23678371
v -0.7821505 0.0052227825 -0.23678371
v -0.7821505 1.4879819 -0.23678347
v 0.96389794 1.4879819 -0.23678347
vt 0.3693188 0.42941546
vt 0.74912196 0.42941546
vt 0.74912196 0.46121538
vt 0.3693188 0.46121538
vt 0.3693188 0.3605585
vt 0.74912196 0.3605585
vt 0.74912196 0.39235842
vt 0.3693188 0.39235842
vt 0.74912196 0.42941546
vt 0.74912196 0.46121538
vt 0.7670447 0.46142256
vt 0.7670447 0.46142256
vt 0.7670447 0.42920828
vt 0.74912196 0.42941546
vt 0.3693188 0.46121538
vt 0.74912196 0.46121538
vt 0.7489147 0.4791379
vt 0.7489147 0.4791379
vt 0.36952612 0.4791379
vt 0.3693188 0.46121538
vt 0.74912196 0.46121538
vt 0.74912196 0.42941546
vt 0.7670446 0.42920828
vt 0.7670446 0.42920828
vt 0.7670446 0.46142256
vt 0.74912196 0.46121538
vt 0.74912196 0.42941546
vt 0.3693188 0.42941546
vt 0.36952612 0.42054498
vt 0.36952612 0.42054498
vt 0.7489147 0.42054498
vt 0.74912196 0.42941546
vt 0.74912196 0.3605585
vt 0.74912196 0.39235842
vt 0.7670447 0.39256573
vt 0.7670447 0.39256573
vt 0.7670447 0.3603512
vt 0.74912196 0.3605585
vt 0.3693188 0.39235842
vt 0.74912196 0.39235842
vt 0.7489147 0.41028106
vt 0.7489147 0.41028106
vt 0.36952612 0.41028106
vt 0.3693188 0.39235842
vt 0.74912196 0.39235842
vt 0.74912196 0.3605585
vt 0.7670446 0.3603512
vt 0.7670446 0.3603512
vt 0.7670446 0.39256573
vt 0.74912196 0.39235842
vt 0.74912196 0.3605585
vt 0.3693188 0.3605585
vt 0.36952612 0.3524027
vt 0.36952612 0.3524027
vt 0.7489147 0.3524027
vt 0.74912196 0.3605585
vt 0.6635305 0.0067341328
vt 0.9602211 0.0067341328
vt 0.9602211 0.25517142
vt 0.6635305 0.25517142
vt 0.35268787 0.5442955
vt 0.6925301 0.5442955
vt 0.6925301 0.98344046
vt 0.35268787 0.98344046
vt 0.3587283 0.005447626
vt 0.6554188 0.005447626
vt 0.6554188 0.2538849
vt 0.3587283 0.2538849
vn -0 0 1
vn -0 0 1
vn -0 0 1
vn -0 0 1
vn -0 0 1
vn -0 0 1
vn -0 0 1
vn -0 0 1
vn -1 0 0
vn -1 0 0
vn -1 0 0
vn -1 0 0
vn -1 0 0
vn -1 0 0
vn -0 1 0
vn -0 1 0
vn -0 1 0
vn -0 1 0
vn -0 1 0
vn -0 1 0
vn 1 0 0
vn 1 0 0
vn 1 0 0
vn 1 0 0
vn 1 0 0
vn 1 0 0
vn -0 -1 0
vn -0 -1 0
vn -0 -1 0
vn -0 -1 0
vn -0 -1 0
vn -0 -1 0
vn -1 0 0
vn -1 0 0
vn -1 0 0
vn -1 0 0
vn -1 0 0
vn -1 0 0
vn -0 1 0
vn -0 1 0
vn -0 1 0
vn -0 1 0
vn -0 1 0
vn -0 1 0
vn 1 0 0
vn 1 0 0
vn 1 0 0
vn 1 0 0
vn 1 0 0
vn 1 0 0
vn -0 -1 0
vn -0 -1 0
vn -0 -1 0
vn -0 -1 0
vn -0 -1 0
vn -0 -1 0
vn -0 0 1
vn -0 0 1
vn -0 0 1
vn -0 0 1
vn -0 0 1
vn -0 0 1
vn -0 0 1
vn -0 0 1
vn -0 0 1
vn -0 0 1
vn -0 0 1
vn -0 0 1
g back_008_00_00_0
f 10/10/10 11/11/11 9/9/9
f 13/13/13 14/14/14 12/12/12
f 16/16/16 17/17/17 15/15/15
f 19/19/19 20/20/20 18/18/18
f 22/22/22 23/23/23 21/21/21
f 25/25/25 26/26/26 24/24/24
f 28/28/28 29/29/29 27/27/27
f 31/31/31 32/32/32 30/30/30
f 34/34/34 35/35/35 33/33/33
f 37/37/37 38/38/38 36/36/36
f 40/40/40 41/41/41 39/39/39
f 43/43/43 44/44/44 42/42/42
f 46/46/46 47/47/47 45/45/45
f 49/49/49 50/50/50 48/48/48
f 52/52/52 53/53/53 51/51/51
f 55/55/55 56/56/56 54/54/54
f 3/3/3 4/4/4 1/1/1
f 2/2/2 3/3/3 1/1/1
f 7/7/7 8/8/8 5/5/5
f 6/6/6 7/7/7 5/5/5
f 59/59/59 60/60/60 57/57/57
f 58/58/58 59/59/59 57/57/57
f 63/63/63 64/64/64 61/61/61
f 62/62/62 63/63/63 61/61/61
f 67/67/67 66/66/66 65/65/65
f 68/68/68 67/67/67 65/65/65
