g front_000
v 1.1227465 4.7533075E-09 -0.11145675
v -1.1227474 4.7533075E-09 -0.11145648
v 1.1227467 2.917509 -0.11145663
v -1.1227477 2.917509 -0.111456364
v 0.7458995 2.3437119 -0.021867946
v -0.8599043 2.3437119 -0.02186793
v 0.7458995 0.72237915 -0.021868184
v -0.8599043 0.72237915 -0.02186817
v 1.185256 0.68490696 0.09360613
v -1.1852562 0.6849068 0.0936064
v 1.1227466 0.534024 -0.11145674
v -1.1227477 0.5340238 -0.11145647
v -1.1227477 0.7630479 -0.111456454
v 1.1227466 0.7630481 -0.11145672
v 1.185256 0.49606025 0.09360613
v -1.1852562 0.49606 0.0936064
v 0.21063173 2.3047428 0.089288205
v -0.3246361 2.3047428 0.089288205
v -0.3246361 0.68341 0.08928797
v 0.21063173 0.68341 0.08928797
vt 0 0.20499998
vt 0 0.97615
vt 0.5011258 0.205
vt 0.5011258 0.97615
vt 0.7950347 0.87
vt 0.51930135 0.87
vt 0.7950347 0.3132
vt 0.51930135 0.3132
vt 0.11776456 0.20499998
vt 0.11776456 0.97615
vt 0.09185636 0.20499998
vt 0.09185636 0.97615
vt 0.1311822 0.97615
vt 0.13118221 0.20499998
vt 0.09185636 0.20499998
vt 0.09185636 0.97615
vt 0.70312357 0.87
vt 0.6112125 0.87
vt 0.6112125 0.3132
vt 0.70312357 0.3132
vn -0 0 1
vn -0 0 1
vn -0 0 1
vn -0 0 1
vn 0.20332667 0 0.979111
vn -0.20332648 0 0.979111
vn 0.20332664 0 0.979111
vn -0.20332648 0 0.979111
vn -0 0.5112993 0.8594028
vn -0 0.51129997 0.8594023
vn -0 0 1
vn -0 0 1
vn -0 0.6125089 0.7904637
vn -0 0.6125093 0.7904634
vn -0 0 1
vn -0 0 1
vn 0.10446183 0 0.99452883
vn -0.10446173 0 0.99452883
vn -0.09982946 0 0.9950046
vn 0.099829555 0 0.9950046
g front_000_0
f 12/12/12 2/2/2 1/1/1
f 11/11/11 12/12/12 1/1/1
f 16/16/16 15/15/15 9/9/9
f 10/10/10 16/16/16 9/9/9
f 10/10/10 9/9/9 14/14/14
f 13/13/13 10/10/10 14/14/14
f 13/13/13 14/14/14 3/3/3
f 4/4/4 13/13/13 3/3/3
f 8/8/8 19/19/19 6/6/6
f 19/19/19 18/18/18 6/6/6
f 19/19/19 20/20/20 18/18/18
f 20/20/20 17/17/17 18/18/18
f 17/17/17 20/20/20 7/7/7
f 5/5/5 17/17/17 7/7/7
