g 000_004
v 6.0836654 1.8312035 3.7722774
v 6.0836654 -2.7084703 3.772276
v 9.880135 -2.7084703 3.772276
v 9.880135 1.8312035 3.7722774
v 7.38409 -2.907902 5.0830307
v 7.38409 0.9133725 5.0830317
v 4.1884074 -2.907902 5.0830307
v 4.1884074 0.9133725 5.0830317
v -3.1421533 -1.39716 6.8499985
v -3.1421533 2.4241157 6.8499994
v -6.3378367 -1.39716 6.8499985
v -6.3378367 2.4241157 6.8499994
v -8.38468 0.86063385 4.6052547
v -8.38468 -3.8471763 4.605253
v -4.447602 -3.8471763 4.605253
v -4.447602 0.86063385 4.6052547
v -5.706716 -2.3077412 3.4756465
v -5.706716 3.194892 3.475648
v -10.308498 -2.3077412 3.4756465
v -10.308498 3.194892 3.475648
v -5.876103 -0.440238 1.220001
v -5.876103 -3.80296 1.2199998
v -3.0639033 -3.80296 1.2199998
v -3.0639033 -0.440238 1.220001
v -2.7493706 -5.231327 -0.3102789
v -0.20043564 -5.231327 -0.3102789
v -0.20043564 -2.6823924 -0.31028032
v -2.7493706 -2.6823924 -0.31028032
v -4.252995 -4.982051 -0.10099125
v -2.128882 -4.982051 -0.10099125
v -2.128882 -2.8579383 -0.1009922
v -4.252995 -2.8579383 -0.1009922
vt 0.040774062 0.993913
vt 0.040774062 0.359062
vt 0.4867685 0.359062
vt 0.4867685 0.993913
vt 0.9131156 0.3560605
vt 0.9131156 0.9928901
vt 0.48856604 0.3560605
vt 0.48856604 0.9928901
vt 0.9131156 0.3560605
vt 0.9131156 0.9928901
vt 0.48856604 0.3560605
vt 0.48856604 0.9928901
vt 0.040774062 0.993913
vt 0.040774062 0.359062
vt 0.4867685 0.359062
vt 0.4867685 0.993913
vt 0.9131156 0.3560605
vt 0.9131156 0.9928901
vt 0.48856604 0.3560605
vt 0.48856604 0.9928901
vt 0.040774062 0.993913
vt 0.040774062 0.359062
vt 0.4867685 0.359062
vt 0.4867685 0.993913
vt 0.08719505 0.03985288
vt 0.40995175 0.03985288
vt 0.40995175 0.32115272
vt 0.08719505 0.32115272
vt 0.08719505 0.03985288
vt 0.40995175 0.03985288
vt 0.40995175 0.32115272
vt 0.08719505 0.32115272
vn -0 0 1
vn -0 0 1
vn -0 0 1
vn -0 0 1
vn -0 0 1
vn -0 0 1
vn -0 0 1
vn -0 0 1
vn -0 0 1
vn -0 0 1
vn -0 0 1
vn -0 0 1
vn -0 0 1
vn -0 0 1
vn -0 0 1
vn -0 0 1
vn -0 0 1
vn -0 0 1
vn -0 0 1
vn -0 0 1
vn -0 0 1
vn -0 0 1
vn -0 0 1
vn -0 0 1
vn -0 0 1
vn -0 0 1
vn -0 0 1
vn -0 0 1
vn -0 0 1
vn -0 0 1
vn -0 0 1
vn -0 0 1
g 000_004_0
f 3/3/3 4/4/4 1/1/1
f 2/2/2 3/3/3 1/1/1
f 8/8/8 7/7/7 5/5/5
f 6/6/6 8/8/8 5/5/5
f 12/12/12 11/11/11 9/9/9
f 10/10/10 12/12/12 9/9/9
f 15/15/15 16/16/16 13/13/13
f 14/14/14 15/15/15 13/13/13
f 20/20/20 19/19/19 17/17/17
f 18/18/18 20/20/20 17/17/17
f 23/23/23 24/24/24 21/21/21
f 22/22/22 23/23/23 21/21/21
f 28/28/28 25/25/25 26/26/26
f 27/27/27 28/28/28 26/26/26
f 32/32/32 29/29/29 30/30/30
f 31/31/31 32/32/32 30/30/30
